<?xml version="1.0" encoding="utf-8"?>
<svg xmlns="http://www.w3.org/2000/svg" xmlns:xlink="http://www.w3.org/1999/xlink" width="900" height="600" viewBox="0 0 3600 2400">
<defs>
  <clipPath id="clip580">
    <rect x="0" y="0" width="3600" height="2400"/>
  </clipPath>
</defs>
<path clip-path="url(#clip580)" d="M0 2400 L3600 2400 L3600 0 L0 0  Z" fill="#ffffff" fill-rule="evenodd" fill-opacity="1"/>
<defs>
  <clipPath id="clip581">
    <rect x="720" y="0" width="2521" height="2400"/>
  </clipPath>
</defs>
<path clip-path="url(#clip580)" d="M350.404 2215.18 L3552.76 2215.18 L3552.76 123.472 L350.404 123.472  Z" fill="#ffffff" fill-rule="evenodd" fill-opacity="1"/>
<defs>
  <clipPath id="clip582">
    <rect x="350" y="123" width="3203" height="2093"/>
  </clipPath>
</defs>
<polyline clip-path="url(#clip582)" style="stroke:#000000; stroke-linecap:round; stroke-linejoin:round; stroke-width:2; stroke-opacity:0.1; fill:none" points="526.539,2215.18 526.539,123.472 "/>
<polyline clip-path="url(#clip582)" style="stroke:#000000; stroke-linecap:round; stroke-linejoin:round; stroke-width:2; stroke-opacity:0.1; fill:none" points="1318.23,2215.18 1318.23,123.472 "/>
<polyline clip-path="url(#clip582)" style="stroke:#000000; stroke-linecap:round; stroke-linejoin:round; stroke-width:2; stroke-opacity:0.1; fill:none" points="2109.92,2215.18 2109.92,123.472 "/>
<polyline clip-path="url(#clip582)" style="stroke:#000000; stroke-linecap:round; stroke-linejoin:round; stroke-width:2; stroke-opacity:0.1; fill:none" points="2901.61,2215.18 2901.61,123.472 "/>
<polyline clip-path="url(#clip582)" style="stroke:#000000; stroke-linecap:round; stroke-linejoin:round; stroke-width:2; stroke-opacity:0.1; fill:none" points="526.539,2215.18 526.539,123.472 "/>
<polyline clip-path="url(#clip582)" style="stroke:#000000; stroke-linecap:round; stroke-linejoin:round; stroke-width:2; stroke-opacity:0.1; fill:none" points="1318.23,2215.18 1318.23,123.472 "/>
<polyline clip-path="url(#clip582)" style="stroke:#000000; stroke-linecap:round; stroke-linejoin:round; stroke-width:2; stroke-opacity:0.1; fill:none" points="2109.92,2215.18 2109.92,123.472 "/>
<polyline clip-path="url(#clip582)" style="stroke:#000000; stroke-linecap:round; stroke-linejoin:round; stroke-width:2; stroke-opacity:0.1; fill:none" points="2901.61,2215.18 2901.61,123.472 "/>
<polyline clip-path="url(#clip582)" style="stroke:#000000; stroke-linecap:round; stroke-linejoin:round; stroke-width:2; stroke-opacity:0.1; fill:none" points="350.404,2215.18 3552.76,2215.18 "/>
<polyline clip-path="url(#clip582)" style="stroke:#000000; stroke-linecap:round; stroke-linejoin:round; stroke-width:2; stroke-opacity:0.1; fill:none" points="350.404,1659.63 3552.76,1659.63 "/>
<polyline clip-path="url(#clip582)" style="stroke:#000000; stroke-linecap:round; stroke-linejoin:round; stroke-width:2; stroke-opacity:0.1; fill:none" points="350.404,1104.09 3552.76,1104.09 "/>
<polyline clip-path="url(#clip582)" style="stroke:#000000; stroke-linecap:round; stroke-linejoin:round; stroke-width:2; stroke-opacity:0.1; fill:none" points="350.404,548.54 3552.76,548.54 "/>
<polyline clip-path="url(#clip582)" style="stroke:#000000; stroke-linecap:round; stroke-linejoin:round; stroke-width:2; stroke-opacity:0.1; fill:none" points="350.404,2215.18 3552.76,2215.18 "/>
<polyline clip-path="url(#clip582)" style="stroke:#000000; stroke-linecap:round; stroke-linejoin:round; stroke-width:2; stroke-opacity:0.1; fill:none" points="350.404,1659.63 3552.76,1659.63 "/>
<polyline clip-path="url(#clip582)" style="stroke:#000000; stroke-linecap:round; stroke-linejoin:round; stroke-width:2; stroke-opacity:0.1; fill:none" points="350.404,1104.09 3552.76,1104.09 "/>
<polyline clip-path="url(#clip582)" style="stroke:#000000; stroke-linecap:round; stroke-linejoin:round; stroke-width:2; stroke-opacity:0.1; fill:none" points="350.404,548.54 3552.76,548.54 "/>
<polyline clip-path="url(#clip580)" style="stroke:#000000; stroke-linecap:round; stroke-linejoin:round; stroke-width:4; stroke-opacity:1; fill:none" points="350.404,2215.18 3552.76,2215.18 "/>
<polyline clip-path="url(#clip580)" style="stroke:#000000; stroke-linecap:round; stroke-linejoin:round; stroke-width:4; stroke-opacity:1; fill:none" points="350.404,123.472 3552.76,123.472 "/>
<polyline clip-path="url(#clip580)" style="stroke:#000000; stroke-linecap:round; stroke-linejoin:round; stroke-width:4; stroke-opacity:1; fill:none" points="526.539,2215.18 526.539,2196.28 "/>
<polyline clip-path="url(#clip580)" style="stroke:#000000; stroke-linecap:round; stroke-linejoin:round; stroke-width:4; stroke-opacity:1; fill:none" points="1318.23,2215.18 1318.23,2196.28 "/>
<polyline clip-path="url(#clip580)" style="stroke:#000000; stroke-linecap:round; stroke-linejoin:round; stroke-width:4; stroke-opacity:1; fill:none" points="2109.92,2215.18 2109.92,2196.28 "/>
<polyline clip-path="url(#clip580)" style="stroke:#000000; stroke-linecap:round; stroke-linejoin:round; stroke-width:4; stroke-opacity:1; fill:none" points="2901.61,2215.18 2901.61,2196.28 "/>
<polyline clip-path="url(#clip580)" style="stroke:#000000; stroke-linecap:round; stroke-linejoin:round; stroke-width:4; stroke-opacity:1; fill:none" points="526.539,123.472 526.539,142.37 "/>
<polyline clip-path="url(#clip580)" style="stroke:#000000; stroke-linecap:round; stroke-linejoin:round; stroke-width:4; stroke-opacity:1; fill:none" points="1318.23,123.472 1318.23,142.37 "/>
<polyline clip-path="url(#clip580)" style="stroke:#000000; stroke-linecap:round; stroke-linejoin:round; stroke-width:4; stroke-opacity:1; fill:none" points="2109.92,123.472 2109.92,142.37 "/>
<polyline clip-path="url(#clip580)" style="stroke:#000000; stroke-linecap:round; stroke-linejoin:round; stroke-width:4; stroke-opacity:1; fill:none" points="2901.61,123.472 2901.61,142.37 "/>
<path clip-path="url(#clip580)" d="M526.539 2255.7 Q522.928 2255.7 521.1 2259.26 Q519.294 2262.8 519.294 2269.93 Q519.294 2277.04 521.1 2280.61 Q522.928 2284.15 526.539 2284.15 Q530.174 2284.15 531.979 2280.61 Q533.808 2277.04 533.808 2269.93 Q533.808 2262.8 531.979 2259.26 Q530.174 2255.7 526.539 2255.7 M526.539 2251.99 Q532.35 2251.99 535.405 2256.6 Q538.484 2261.18 538.484 2269.93 Q538.484 2278.66 535.405 2283.27 Q532.35 2287.85 526.539 2287.85 Q520.729 2287.85 517.651 2283.27 Q514.595 2278.66 514.595 2269.93 Q514.595 2261.18 517.651 2256.6 Q520.729 2251.99 526.539 2251.99 Z" fill="#000000" fill-rule="nonzero" fill-opacity="1" /><path clip-path="url(#clip580)" d="M1277.84 2283.24 L1285.47 2283.24 L1285.47 2256.88 L1277.16 2258.55 L1277.16 2254.29 L1285.43 2252.62 L1290.1 2252.62 L1290.1 2283.24 L1297.74 2283.24 L1297.74 2287.18 L1277.84 2287.18 L1277.84 2283.24 Z" fill="#000000" fill-rule="nonzero" fill-opacity="1" /><path clip-path="url(#clip580)" d="M1317.19 2255.7 Q1313.58 2255.7 1311.75 2259.26 Q1309.94 2262.8 1309.94 2269.93 Q1309.94 2277.04 1311.75 2280.61 Q1313.58 2284.15 1317.19 2284.15 Q1320.82 2284.15 1322.63 2280.61 Q1324.46 2277.04 1324.46 2269.93 Q1324.46 2262.8 1322.63 2259.26 Q1320.82 2255.7 1317.19 2255.7 M1317.19 2251.99 Q1323 2251.99 1326.05 2256.6 Q1329.13 2261.18 1329.13 2269.93 Q1329.13 2278.66 1326.05 2283.27 Q1323 2287.85 1317.19 2287.85 Q1311.38 2287.85 1308.3 2283.27 Q1305.24 2278.66 1305.24 2269.93 Q1305.24 2261.18 1308.3 2256.6 Q1311.38 2251.99 1317.19 2251.99 Z" fill="#000000" fill-rule="nonzero" fill-opacity="1" /><path clip-path="url(#clip580)" d="M1347.35 2255.7 Q1343.74 2255.7 1341.91 2259.26 Q1340.1 2262.8 1340.1 2269.93 Q1340.1 2277.04 1341.91 2280.61 Q1343.74 2284.15 1347.35 2284.15 Q1350.98 2284.15 1352.79 2280.61 Q1354.62 2277.04 1354.62 2269.93 Q1354.62 2262.8 1352.79 2259.26 Q1350.98 2255.7 1347.35 2255.7 M1347.35 2251.99 Q1353.16 2251.99 1356.21 2256.6 Q1359.29 2261.18 1359.29 2269.93 Q1359.29 2278.66 1356.21 2283.27 Q1353.16 2287.85 1347.35 2287.85 Q1341.54 2287.85 1338.46 2283.27 Q1335.4 2278.66 1335.4 2269.93 Q1335.4 2261.18 1338.46 2256.6 Q1341.54 2251.99 1347.35 2251.99 Z" fill="#000000" fill-rule="nonzero" fill-opacity="1" /><path clip-path="url(#clip580)" d="M2073.61 2283.24 L2089.93 2283.24 L2089.93 2287.18 L2067.99 2287.18 L2067.99 2283.24 Q2070.65 2280.49 2075.23 2275.86 Q2079.84 2271.21 2081.02 2269.87 Q2083.26 2267.34 2084.14 2265.61 Q2085.05 2263.85 2085.05 2262.16 Q2085.05 2259.4 2083.1 2257.67 Q2081.18 2255.93 2078.08 2255.93 Q2075.88 2255.93 2073.43 2256.69 Q2070.99 2257.46 2068.22 2259.01 L2068.22 2254.29 Q2071.04 2253.15 2073.49 2252.57 Q2075.95 2251.99 2077.99 2251.99 Q2083.36 2251.99 2086.55 2254.68 Q2089.74 2257.37 2089.74 2261.86 Q2089.74 2263.99 2088.93 2265.91 Q2088.15 2267.8 2086.04 2270.4 Q2085.46 2271.07 2082.36 2274.29 Q2079.26 2277.48 2073.61 2283.24 Z" fill="#000000" fill-rule="nonzero" fill-opacity="1" /><path clip-path="url(#clip580)" d="M2109.74 2255.7 Q2106.13 2255.7 2104.3 2259.26 Q2102.5 2262.8 2102.5 2269.93 Q2102.5 2277.04 2104.3 2280.61 Q2106.13 2284.15 2109.74 2284.15 Q2113.38 2284.15 2115.18 2280.61 Q2117.01 2277.04 2117.01 2269.93 Q2117.01 2262.8 2115.18 2259.26 Q2113.38 2255.7 2109.74 2255.7 M2109.74 2251.99 Q2115.55 2251.99 2118.61 2256.6 Q2121.69 2261.18 2121.69 2269.93 Q2121.69 2278.66 2118.61 2283.27 Q2115.55 2287.85 2109.74 2287.85 Q2103.93 2287.85 2100.86 2283.27 Q2097.8 2278.66 2097.8 2269.93 Q2097.8 2261.18 2100.86 2256.6 Q2103.93 2251.99 2109.74 2251.99 Z" fill="#000000" fill-rule="nonzero" fill-opacity="1" /><path clip-path="url(#clip580)" d="M2139.91 2255.7 Q2136.3 2255.7 2134.47 2259.26 Q2132.66 2262.8 2132.66 2269.93 Q2132.66 2277.04 2134.47 2280.61 Q2136.3 2284.15 2139.91 2284.15 Q2143.54 2284.15 2145.35 2280.61 Q2147.17 2277.04 2147.17 2269.93 Q2147.17 2262.8 2145.35 2259.26 Q2143.54 2255.7 2139.91 2255.7 M2139.91 2251.99 Q2145.72 2251.99 2148.77 2256.6 Q2151.85 2261.18 2151.85 2269.93 Q2151.85 2278.66 2148.77 2283.27 Q2145.72 2287.85 2139.91 2287.85 Q2134.1 2287.85 2131.02 2283.27 Q2127.96 2278.66 2127.96 2269.93 Q2127.96 2261.18 2131.02 2256.6 Q2134.1 2251.99 2139.91 2251.99 Z" fill="#000000" fill-rule="nonzero" fill-opacity="1" /><path clip-path="url(#clip580)" d="M2875.37 2268.55 Q2878.73 2269.26 2880.6 2271.53 Q2882.5 2273.8 2882.5 2277.13 Q2882.5 2282.25 2878.98 2285.05 Q2875.46 2287.85 2868.98 2287.85 Q2866.8 2287.85 2864.49 2287.41 Q2862.2 2286.99 2859.74 2286.14 L2859.74 2281.62 Q2861.69 2282.76 2864 2283.34 Q2866.32 2283.92 2868.84 2283.92 Q2873.24 2283.92 2875.53 2282.18 Q2877.85 2280.44 2877.85 2277.13 Q2877.85 2274.08 2875.69 2272.37 Q2873.56 2270.63 2869.74 2270.63 L2865.72 2270.63 L2865.72 2266.79 L2869.93 2266.79 Q2873.38 2266.79 2875.21 2265.42 Q2877.04 2264.03 2877.04 2261.44 Q2877.04 2258.78 2875.14 2257.37 Q2873.26 2255.93 2869.74 2255.93 Q2867.82 2255.93 2865.62 2256.35 Q2863.42 2256.76 2860.79 2257.64 L2860.79 2253.48 Q2863.45 2252.74 2865.76 2252.37 Q2868.1 2251.99 2870.16 2251.99 Q2875.48 2251.99 2878.59 2254.43 Q2881.69 2256.83 2881.69 2260.95 Q2881.69 2263.82 2880.04 2265.81 Q2878.4 2267.78 2875.37 2268.55 Z" fill="#000000" fill-rule="nonzero" fill-opacity="1" /><path clip-path="url(#clip580)" d="M2901.36 2255.7 Q2897.75 2255.7 2895.92 2259.26 Q2894.12 2262.8 2894.12 2269.93 Q2894.12 2277.04 2895.92 2280.61 Q2897.75 2284.15 2901.36 2284.15 Q2905 2284.15 2906.8 2280.61 Q2908.63 2277.04 2908.63 2269.93 Q2908.63 2262.8 2906.8 2259.26 Q2905 2255.7 2901.36 2255.7 M2901.36 2251.99 Q2907.17 2251.99 2910.23 2256.6 Q2913.31 2261.18 2913.31 2269.93 Q2913.31 2278.66 2910.23 2283.27 Q2907.17 2287.85 2901.36 2287.85 Q2895.55 2287.85 2892.48 2283.27 Q2889.42 2278.66 2889.42 2269.93 Q2889.42 2261.18 2892.48 2256.6 Q2895.55 2251.99 2901.36 2251.99 Z" fill="#000000" fill-rule="nonzero" fill-opacity="1" /><path clip-path="url(#clip580)" d="M2931.53 2255.7 Q2927.92 2255.7 2926.09 2259.26 Q2924.28 2262.8 2924.28 2269.93 Q2924.28 2277.04 2926.09 2280.61 Q2927.92 2284.15 2931.53 2284.15 Q2935.16 2284.15 2936.97 2280.61 Q2938.79 2277.04 2938.79 2269.93 Q2938.79 2262.8 2936.97 2259.26 Q2935.16 2255.7 2931.53 2255.7 M2931.53 2251.99 Q2937.34 2251.99 2940.39 2256.6 Q2943.47 2261.18 2943.47 2269.93 Q2943.47 2278.66 2940.39 2283.27 Q2937.34 2287.85 2931.53 2287.85 Q2925.72 2287.85 2922.64 2283.27 Q2919.58 2278.66 2919.58 2269.93 Q2919.58 2261.18 2922.64 2256.6 Q2925.72 2251.99 2931.53 2251.99 Z" fill="#000000" fill-rule="nonzero" fill-opacity="1" /><path clip-path="url(#clip580)" d="M1424.99 2330.52 L1433.65 2330.52 L1454.72 2370.28 L1454.72 2330.52 L1460.96 2330.52 L1460.96 2378.04 L1452.3 2378.04 L1431.23 2338.29 L1431.23 2378.04 L1424.99 2378.04 L1424.99 2330.52 Z" fill="#000000" fill-rule="nonzero" fill-opacity="1" /><path clip-path="url(#clip580)" d="M1503.99 2358.76 L1503.99 2361.62 L1477.06 2361.62 Q1477.45 2367.67 1480.69 2370.85 Q1483.97 2374 1489.8 2374 Q1493.17 2374 1496.32 2373.17 Q1499.5 2372.35 1502.62 2370.69 L1502.62 2376.23 Q1499.47 2377.57 1496.16 2378.27 Q1492.85 2378.97 1489.45 2378.97 Q1480.92 2378.97 1475.92 2374 Q1470.95 2369.04 1470.95 2360.57 Q1470.95 2351.82 1475.66 2346.69 Q1480.41 2341.54 1488.43 2341.54 Q1495.62 2341.54 1499.79 2346.18 Q1503.99 2350.8 1503.99 2358.76 M1498.13 2357.04 Q1498.07 2352.23 1495.43 2349.37 Q1492.82 2346.5 1488.49 2346.5 Q1483.59 2346.5 1480.63 2349.27 Q1477.7 2352.04 1477.26 2357.07 L1498.13 2357.04 Z" fill="#000000" fill-rule="nonzero" fill-opacity="1" /><path clip-path="url(#clip580)" d="M1529.8 2360.12 Q1522.71 2360.12 1519.97 2361.75 Q1517.23 2363.37 1517.23 2367.29 Q1517.23 2370.4 1519.27 2372.25 Q1521.34 2374.07 1524.87 2374.07 Q1529.74 2374.07 1532.67 2370.63 Q1535.63 2367.16 1535.63 2361.43 L1535.63 2360.12 L1529.8 2360.12 M1541.49 2357.71 L1541.49 2378.04 L1535.63 2378.04 L1535.63 2372.63 Q1533.62 2375.88 1530.63 2377.44 Q1527.64 2378.97 1523.31 2378.97 Q1517.84 2378.97 1514.59 2375.91 Q1511.38 2372.82 1511.38 2367.67 Q1511.38 2361.65 1515.39 2358.6 Q1519.43 2355.54 1527.42 2355.54 L1535.63 2355.54 L1535.63 2354.97 Q1535.63 2350.93 1532.96 2348.73 Q1530.31 2346.5 1525.51 2346.5 Q1522.45 2346.5 1519.56 2347.23 Q1516.66 2347.97 1513.99 2349.43 L1513.99 2344.02 Q1517.2 2342.78 1520.22 2342.17 Q1523.25 2341.54 1526.11 2341.54 Q1533.85 2341.54 1537.67 2345.55 Q1541.49 2349.56 1541.49 2357.71 Z" fill="#000000" fill-rule="nonzero" fill-opacity="1" /><path clip-path="url(#clip580)" d="M1574.21 2347.87 Q1573.22 2347.3 1572.04 2347.04 Q1570.89 2346.76 1569.49 2346.76 Q1564.53 2346.76 1561.86 2350 Q1559.21 2353.22 1559.21 2359.27 L1559.21 2378.04 L1553.33 2378.04 L1553.33 2342.4 L1559.21 2342.4 L1559.21 2347.93 Q1561.06 2344.69 1564.02 2343.13 Q1566.98 2341.54 1571.21 2341.54 Q1571.82 2341.54 1572.55 2341.63 Q1573.28 2341.7 1574.17 2341.85 L1574.21 2347.87 Z" fill="#000000" fill-rule="nonzero" fill-opacity="1" /><path clip-path="url(#clip580)" d="M1609.41 2358.76 L1609.41 2361.62 L1582.48 2361.62 Q1582.86 2367.67 1586.11 2370.85 Q1589.39 2374 1595.21 2374 Q1598.59 2374 1601.74 2373.17 Q1604.92 2372.35 1608.04 2370.69 L1608.04 2376.23 Q1604.89 2377.57 1601.58 2378.27 Q1598.27 2378.97 1594.86 2378.97 Q1586.33 2378.97 1581.33 2374 Q1576.37 2369.04 1576.37 2360.57 Q1576.37 2351.82 1581.08 2346.69 Q1585.82 2341.54 1593.84 2341.54 Q1601.04 2341.54 1605.21 2346.18 Q1609.41 2350.8 1609.41 2358.76 M1603.55 2357.04 Q1603.49 2352.23 1600.85 2349.37 Q1598.24 2346.5 1593.91 2346.5 Q1589.01 2346.5 1586.05 2349.27 Q1583.12 2352.04 1582.67 2357.07 L1603.55 2357.04 Z" fill="#000000" fill-rule="nonzero" fill-opacity="1" /><path clip-path="url(#clip580)" d="M1641.75 2343.45 L1641.75 2348.98 Q1639.26 2347.71 1636.59 2347.07 Q1633.92 2346.44 1631.05 2346.44 Q1626.69 2346.44 1624.49 2347.77 Q1622.33 2349.11 1622.33 2351.79 Q1622.33 2353.82 1623.89 2355 Q1625.45 2356.15 1630.16 2357.2 L1632.16 2357.64 Q1638.4 2358.98 1641.01 2361.43 Q1643.66 2363.85 1643.66 2368.21 Q1643.66 2373.17 1639.71 2376.07 Q1635.79 2378.97 1628.92 2378.97 Q1626.05 2378.97 1622.93 2378.39 Q1619.85 2377.85 1616.41 2376.74 L1616.41 2370.69 Q1619.66 2372.38 1622.81 2373.24 Q1625.96 2374.07 1629.05 2374.07 Q1633.18 2374.07 1635.41 2372.66 Q1637.64 2371.23 1637.64 2368.65 Q1637.64 2366.27 1636.02 2364.99 Q1634.42 2363.72 1628.98 2362.54 L1626.95 2362.07 Q1621.5 2360.92 1619.08 2358.56 Q1616.66 2356.18 1616.66 2352.04 Q1616.66 2347.01 1620.23 2344.27 Q1623.79 2341.54 1630.35 2341.54 Q1633.6 2341.54 1636.46 2342.01 Q1639.33 2342.49 1641.75 2343.45 Z" fill="#000000" fill-rule="nonzero" fill-opacity="1" /><path clip-path="url(#clip580)" d="M1658.77 2332.27 L1658.77 2342.4 L1670.84 2342.4 L1670.84 2346.95 L1658.77 2346.95 L1658.77 2366.3 Q1658.77 2370.66 1659.95 2371.9 Q1661.16 2373.14 1664.82 2373.14 L1670.84 2373.14 L1670.84 2378.04 L1664.82 2378.04 Q1658.04 2378.04 1655.46 2375.53 Q1652.89 2372.98 1652.89 2366.3 L1652.89 2346.95 L1648.59 2346.95 L1648.59 2342.4 L1652.89 2342.4 L1652.89 2332.27 L1658.77 2332.27 Z" fill="#000000" fill-rule="nonzero" fill-opacity="1" /><path clip-path="url(#clip580)" d="M1721.99 2343.45 L1721.99 2348.98 Q1719.5 2347.71 1716.83 2347.07 Q1714.16 2346.44 1711.29 2346.44 Q1706.93 2346.44 1704.73 2347.77 Q1702.57 2349.11 1702.57 2351.79 Q1702.57 2353.82 1704.13 2355 Q1705.69 2356.15 1710.4 2357.2 L1712.4 2357.64 Q1718.64 2358.98 1721.25 2361.43 Q1723.89 2363.85 1723.89 2368.21 Q1723.89 2373.17 1719.95 2376.07 Q1716.03 2378.97 1709.16 2378.97 Q1706.29 2378.97 1703.17 2378.39 Q1700.09 2377.85 1696.65 2376.74 L1696.65 2370.69 Q1699.9 2372.38 1703.05 2373.24 Q1706.2 2374.07 1709.29 2374.07 Q1713.42 2374.07 1715.65 2372.66 Q1717.88 2371.23 1717.88 2368.65 Q1717.88 2366.27 1716.26 2364.99 Q1714.66 2363.72 1709.22 2362.54 L1707.18 2362.07 Q1701.74 2360.92 1699.32 2358.56 Q1696.9 2356.18 1696.9 2352.04 Q1696.9 2347.01 1700.47 2344.27 Q1704.03 2341.54 1710.59 2341.54 Q1713.84 2341.54 1716.7 2342.01 Q1719.57 2342.49 1721.99 2343.45 Z" fill="#000000" fill-rule="nonzero" fill-opacity="1" /><path clip-path="url(#clip580)" d="M1739.01 2332.27 L1739.01 2342.4 L1751.08 2342.4 L1751.08 2346.95 L1739.01 2346.95 L1739.01 2366.3 Q1739.01 2370.66 1740.19 2371.9 Q1741.4 2373.14 1745.06 2373.14 L1751.08 2373.14 L1751.08 2378.04 L1745.06 2378.04 Q1738.28 2378.04 1735.7 2375.53 Q1733.13 2372.98 1733.13 2366.3 L1733.13 2346.95 L1728.83 2346.95 L1728.83 2342.4 L1733.13 2342.4 L1733.13 2332.27 L1739.01 2332.27 Z" fill="#000000" fill-rule="nonzero" fill-opacity="1" /><path clip-path="url(#clip580)" d="M1779.44 2347.87 Q1778.45 2347.3 1777.27 2347.04 Q1776.13 2346.76 1774.72 2346.76 Q1769.76 2346.76 1767.09 2350 Q1764.44 2353.22 1764.44 2359.27 L1764.44 2378.04 L1758.56 2378.04 L1758.56 2342.4 L1764.44 2342.4 L1764.44 2347.93 Q1766.29 2344.69 1769.25 2343.13 Q1772.21 2341.54 1776.44 2341.54 Q1777.05 2341.54 1777.78 2341.63 Q1778.51 2341.7 1779.4 2341.85 L1779.44 2347.87 Z" fill="#000000" fill-rule="nonzero" fill-opacity="1" /><path clip-path="url(#clip580)" d="M1814.64 2358.76 L1814.64 2361.62 L1787.71 2361.62 Q1788.09 2367.67 1791.34 2370.85 Q1794.62 2374 1800.44 2374 Q1803.82 2374 1806.97 2373.17 Q1810.15 2372.35 1813.27 2370.69 L1813.27 2376.23 Q1810.12 2377.57 1806.81 2378.27 Q1803.5 2378.97 1800.09 2378.97 Q1791.56 2378.97 1786.57 2374 Q1781.6 2369.04 1781.6 2360.57 Q1781.6 2351.82 1786.31 2346.69 Q1791.05 2341.54 1799.07 2341.54 Q1806.27 2341.54 1810.44 2346.18 Q1814.64 2350.8 1814.64 2358.76 M1808.78 2357.04 Q1808.72 2352.23 1806.08 2349.37 Q1803.47 2346.5 1799.14 2346.5 Q1794.24 2346.5 1791.28 2349.27 Q1788.35 2352.04 1787.9 2357.07 L1808.78 2357.04 Z" fill="#000000" fill-rule="nonzero" fill-opacity="1" /><path clip-path="url(#clip580)" d="M1854.74 2358.76 L1854.74 2361.62 L1827.81 2361.62 Q1828.2 2367.67 1831.44 2370.85 Q1834.72 2374 1840.55 2374 Q1843.92 2374 1847.07 2373.17 Q1850.25 2372.35 1853.37 2370.69 L1853.37 2376.23 Q1850.22 2377.57 1846.91 2378.27 Q1843.6 2378.97 1840.2 2378.97 Q1831.67 2378.97 1826.67 2374 Q1821.7 2369.04 1821.7 2360.57 Q1821.7 2351.82 1826.41 2346.69 Q1831.16 2341.54 1839.18 2341.54 Q1846.37 2341.54 1850.54 2346.18 Q1854.74 2350.8 1854.74 2358.76 M1848.89 2357.04 Q1848.82 2352.23 1846.18 2349.37 Q1843.57 2346.5 1839.24 2346.5 Q1834.34 2346.5 1831.38 2349.27 Q1828.45 2352.04 1828.01 2357.07 L1848.89 2357.04 Z" fill="#000000" fill-rule="nonzero" fill-opacity="1" /><path clip-path="url(#clip580)" d="M1870.15 2332.27 L1870.15 2342.4 L1882.21 2342.4 L1882.21 2346.95 L1870.15 2346.95 L1870.15 2366.3 Q1870.15 2370.66 1871.32 2371.9 Q1872.53 2373.14 1876.19 2373.14 L1882.21 2373.14 L1882.21 2378.04 L1876.19 2378.04 Q1869.41 2378.04 1866.84 2375.53 Q1864.26 2372.98 1864.26 2366.3 L1864.26 2346.95 L1859.96 2346.95 L1859.96 2342.4 L1864.26 2342.4 L1864.26 2332.27 L1870.15 2332.27 Z" fill="#000000" fill-rule="nonzero" fill-opacity="1" /><path clip-path="url(#clip580)" d="M1886.95 2357.58 L1904.11 2357.58 L1904.11 2362.8 L1886.95 2362.8 L1886.95 2357.58 Z" fill="#000000" fill-rule="nonzero" fill-opacity="1" /><path clip-path="url(#clip580)" d="M1913.43 2328.52 L1919.29 2328.52 L1919.29 2378.04 L1913.43 2378.04 L1913.43 2328.52 Z" fill="#000000" fill-rule="nonzero" fill-opacity="1" /><path clip-path="url(#clip580)" d="M1931.54 2342.4 L1937.4 2342.4 L1937.4 2378.04 L1931.54 2378.04 L1931.54 2342.4 M1931.54 2328.52 L1937.4 2328.52 L1937.4 2335.93 L1931.54 2335.93 L1931.54 2328.52 Z" fill="#000000" fill-rule="nonzero" fill-opacity="1" /><path clip-path="url(#clip580)" d="M1973.11 2359.81 Q1973.11 2353.44 1970.47 2349.94 Q1967.86 2346.44 1963.12 2346.44 Q1958.41 2346.44 1955.77 2349.94 Q1953.16 2353.44 1953.16 2359.81 Q1953.16 2366.14 1955.77 2369.64 Q1958.41 2373.14 1963.12 2373.14 Q1967.86 2373.14 1970.47 2369.64 Q1973.11 2366.14 1973.11 2359.81 M1978.97 2373.62 Q1978.97 2382.72 1974.93 2387.15 Q1970.88 2391.6 1962.55 2391.6 Q1959.46 2391.6 1956.72 2391.13 Q1953.98 2390.68 1951.41 2389.72 L1951.41 2384.03 Q1953.98 2385.43 1956.5 2386.1 Q1959.01 2386.76 1961.62 2386.76 Q1967.38 2386.76 1970.25 2383.74 Q1973.11 2380.75 1973.11 2374.67 L1973.11 2371.77 Q1971.3 2374.92 1968.47 2376.48 Q1965.63 2378.04 1961.69 2378.04 Q1955.13 2378.04 1951.12 2373.05 Q1947.11 2368.05 1947.11 2359.81 Q1947.11 2351.53 1951.12 2346.53 Q1955.13 2341.54 1961.69 2341.54 Q1965.63 2341.54 1968.47 2343.1 Q1971.3 2344.66 1973.11 2347.81 L1973.11 2342.4 L1978.97 2342.4 L1978.97 2373.62 Z" fill="#000000" fill-rule="nonzero" fill-opacity="1" /><path clip-path="url(#clip580)" d="M2020.66 2356.53 L2020.66 2378.04 L2014.81 2378.04 L2014.81 2356.72 Q2014.81 2351.66 2012.83 2349.14 Q2010.86 2346.63 2006.91 2346.63 Q2002.17 2346.63 1999.43 2349.65 Q1996.7 2352.68 1996.7 2357.9 L1996.7 2378.04 L1990.81 2378.04 L1990.81 2328.52 L1996.7 2328.52 L1996.7 2347.93 Q1998.8 2344.72 2001.63 2343.13 Q2004.5 2341.54 2008.22 2341.54 Q2014.36 2341.54 2017.51 2345.36 Q2020.66 2349.14 2020.66 2356.53 Z" fill="#000000" fill-rule="nonzero" fill-opacity="1" /><path clip-path="url(#clip580)" d="M2038.14 2332.27 L2038.14 2342.4 L2050.2 2342.4 L2050.2 2346.95 L2038.14 2346.95 L2038.14 2366.3 Q2038.14 2370.66 2039.32 2371.9 Q2040.52 2373.14 2044.19 2373.14 L2050.2 2373.14 L2050.2 2378.04 L2044.19 2378.04 Q2037.41 2378.04 2034.83 2375.53 Q2032.25 2372.98 2032.25 2366.3 L2032.25 2346.95 L2027.95 2346.95 L2027.95 2342.4 L2032.25 2342.4 L2032.25 2332.27 L2038.14 2332.27 Z" fill="#000000" fill-rule="nonzero" fill-opacity="1" /><path clip-path="url(#clip580)" d="M2102.08 2347.81 L2102.08 2328.52 L2107.94 2328.52 L2107.94 2378.04 L2102.08 2378.04 L2102.08 2372.7 Q2100.24 2375.88 2097.4 2377.44 Q2094.6 2378.97 2090.65 2378.97 Q2084.19 2378.97 2080.12 2373.81 Q2076.08 2368.65 2076.08 2360.25 Q2076.08 2351.85 2080.12 2346.69 Q2084.19 2341.54 2090.65 2341.54 Q2094.6 2341.54 2097.4 2343.1 Q2100.24 2344.62 2102.08 2347.81 M2082.12 2360.25 Q2082.12 2366.71 2084.77 2370.4 Q2087.44 2374.07 2092.09 2374.07 Q2096.73 2374.07 2099.41 2370.4 Q2102.08 2366.71 2102.08 2360.25 Q2102.08 2353.79 2099.41 2350.13 Q2096.73 2346.44 2092.09 2346.44 Q2087.44 2346.44 2084.77 2350.13 Q2082.12 2353.79 2082.12 2360.25 Z" fill="#000000" fill-rule="nonzero" fill-opacity="1" /><path clip-path="url(#clip580)" d="M2120 2342.4 L2125.86 2342.4 L2125.86 2378.04 L2120 2378.04 L2120 2342.4 M2120 2328.52 L2125.86 2328.52 L2125.86 2335.93 L2120 2335.93 L2120 2328.52 Z" fill="#000000" fill-rule="nonzero" fill-opacity="1" /><path clip-path="url(#clip580)" d="M2160.84 2343.45 L2160.84 2348.98 Q2158.35 2347.71 2155.68 2347.07 Q2153.01 2346.44 2150.14 2346.44 Q2145.78 2346.44 2143.59 2347.77 Q2141.42 2349.11 2141.42 2351.79 Q2141.42 2353.82 2142.98 2355 Q2144.54 2356.15 2149.25 2357.2 L2151.26 2357.64 Q2157.49 2358.98 2160.1 2361.43 Q2162.75 2363.85 2162.75 2368.21 Q2162.75 2373.17 2158.8 2376.07 Q2154.88 2378.97 2148.01 2378.97 Q2145.15 2378.97 2142.03 2378.39 Q2138.94 2377.85 2135.5 2376.74 L2135.5 2370.69 Q2138.75 2372.38 2141.9 2373.24 Q2145.05 2374.07 2148.14 2374.07 Q2152.27 2374.07 2154.5 2372.66 Q2156.73 2371.23 2156.73 2368.65 Q2156.73 2366.27 2155.11 2364.99 Q2153.52 2363.72 2148.07 2362.54 L2146.04 2362.07 Q2140.59 2360.92 2138.17 2358.56 Q2135.76 2356.18 2135.76 2352.04 Q2135.76 2347.01 2139.32 2344.27 Q2142.89 2341.54 2149.44 2341.54 Q2152.69 2341.54 2155.55 2342.01 Q2158.42 2342.49 2160.84 2343.45 Z" fill="#000000" fill-rule="nonzero" fill-opacity="1" /><path clip-path="url(#clip580)" d="M2177.87 2332.27 L2177.87 2342.4 L2189.93 2342.4 L2189.93 2346.95 L2177.87 2346.95 L2177.87 2366.3 Q2177.87 2370.66 2179.04 2371.9 Q2180.25 2373.14 2183.91 2373.14 L2189.93 2373.14 L2189.93 2378.04 L2183.91 2378.04 Q2177.13 2378.04 2174.55 2375.53 Q2171.98 2372.98 2171.98 2366.3 L2171.98 2346.95 L2167.68 2346.95 L2167.68 2342.4 L2171.98 2342.4 L2171.98 2332.27 L2177.87 2332.27 Z" fill="#000000" fill-rule="nonzero" fill-opacity="1" /><path clip-path="url(#clip580)" d="M2213.83 2360.12 Q2206.73 2360.12 2204 2361.75 Q2201.26 2363.37 2201.26 2367.29 Q2201.26 2370.4 2203.3 2372.25 Q2205.36 2374.07 2208.9 2374.07 Q2213.77 2374.07 2216.7 2370.63 Q2219.66 2367.16 2219.66 2361.43 L2219.66 2360.12 L2213.83 2360.12 M2225.51 2357.71 L2225.51 2378.04 L2219.66 2378.04 L2219.66 2372.63 Q2217.65 2375.88 2214.66 2377.44 Q2211.67 2378.97 2207.34 2378.97 Q2201.86 2378.97 2198.62 2375.91 Q2195.4 2372.82 2195.4 2367.67 Q2195.4 2361.65 2199.41 2358.6 Q2203.46 2355.54 2211.44 2355.54 L2219.66 2355.54 L2219.66 2354.97 Q2219.66 2350.93 2216.98 2348.73 Q2214.34 2346.5 2209.53 2346.5 Q2206.48 2346.5 2203.58 2347.23 Q2200.69 2347.97 2198.01 2349.43 L2198.01 2344.02 Q2201.23 2342.78 2204.25 2342.17 Q2207.27 2341.54 2210.14 2341.54 Q2217.87 2341.54 2221.69 2345.55 Q2225.51 2349.56 2225.51 2357.71 Z" fill="#000000" fill-rule="nonzero" fill-opacity="1" /><path clip-path="url(#clip580)" d="M2267.21 2356.53 L2267.21 2378.04 L2261.35 2378.04 L2261.35 2356.72 Q2261.35 2351.66 2259.38 2349.14 Q2257.4 2346.63 2253.46 2346.63 Q2248.72 2346.63 2245.98 2349.65 Q2243.24 2352.68 2243.24 2357.9 L2243.24 2378.04 L2237.35 2378.04 L2237.35 2342.4 L2243.24 2342.4 L2243.24 2347.93 Q2245.34 2344.72 2248.17 2343.13 Q2251.04 2341.54 2254.76 2341.54 Q2260.91 2341.54 2264.06 2345.36 Q2267.21 2349.14 2267.21 2356.53 Z" fill="#000000" fill-rule="nonzero" fill-opacity="1" /><path clip-path="url(#clip580)" d="M2304.54 2343.76 L2304.54 2349.24 Q2302.06 2347.87 2299.55 2347.2 Q2297.06 2346.5 2294.52 2346.5 Q2288.82 2346.5 2285.67 2350.13 Q2282.52 2353.73 2282.52 2360.25 Q2282.52 2366.78 2285.67 2370.4 Q2288.82 2374 2294.52 2374 Q2297.06 2374 2299.55 2373.33 Q2302.06 2372.63 2304.54 2371.26 L2304.54 2376.68 Q2302.09 2377.82 2299.45 2378.39 Q2296.84 2378.97 2293.88 2378.97 Q2285.83 2378.97 2281.09 2373.91 Q2276.34 2368.85 2276.34 2360.25 Q2276.34 2351.53 2281.12 2346.53 Q2285.92 2341.54 2294.26 2341.54 Q2296.97 2341.54 2299.55 2342.11 Q2302.12 2342.65 2304.54 2343.76 Z" fill="#000000" fill-rule="nonzero" fill-opacity="1" /><path clip-path="url(#clip580)" d="M2345.22 2358.76 L2345.22 2361.62 L2318.29 2361.62 Q2318.67 2367.67 2321.92 2370.85 Q2325.2 2374 2331.02 2374 Q2334.4 2374 2337.55 2373.17 Q2340.73 2372.35 2343.85 2370.69 L2343.85 2376.23 Q2340.7 2377.57 2337.39 2378.27 Q2334.08 2378.97 2330.67 2378.97 Q2322.14 2378.97 2317.15 2374 Q2312.18 2369.04 2312.18 2360.57 Q2312.18 2351.82 2316.89 2346.69 Q2321.63 2341.54 2329.66 2341.54 Q2336.85 2341.54 2341.02 2346.18 Q2345.22 2350.8 2345.22 2358.76 M2339.36 2357.04 Q2339.3 2352.23 2336.66 2349.37 Q2334.05 2346.5 2329.72 2346.5 Q2324.82 2346.5 2321.86 2349.27 Q2318.93 2352.04 2318.48 2357.07 L2339.36 2357.04 Z" fill="#000000" fill-rule="nonzero" fill-opacity="1" /><path clip-path="url(#clip580)" d="M2389.62 2328.58 Q2385.36 2335.9 2383.29 2343.06 Q2381.22 2350.23 2381.22 2357.58 Q2381.22 2364.93 2383.29 2372.16 Q2385.39 2379.35 2389.62 2386.64 L2384.53 2386.64 Q2379.75 2379.16 2377.37 2371.93 Q2375.01 2364.71 2375.01 2357.58 Q2375.01 2350.48 2377.37 2343.29 Q2379.72 2336.09 2384.53 2328.58 L2389.62 2328.58 Z" fill="#000000" fill-rule="nonzero" fill-opacity="1" /><path clip-path="url(#clip580)" d="M2428.74 2349.24 Q2430.93 2345.29 2433.99 2343.41 Q2437.04 2341.54 2441.18 2341.54 Q2446.75 2341.54 2449.78 2345.45 Q2452.8 2349.33 2452.8 2356.53 L2452.8 2378.04 L2446.91 2378.04 L2446.91 2356.72 Q2446.91 2351.59 2445.1 2349.11 Q2443.28 2346.63 2439.56 2346.63 Q2435.01 2346.63 2432.37 2349.65 Q2429.72 2352.68 2429.72 2357.9 L2429.72 2378.04 L2423.84 2378.04 L2423.84 2356.72 Q2423.84 2351.56 2422.02 2349.11 Q2420.21 2346.63 2416.42 2346.63 Q2411.93 2346.63 2409.29 2349.68 Q2406.65 2352.71 2406.65 2357.9 L2406.65 2378.04 L2400.76 2378.04 L2400.76 2342.4 L2406.65 2342.4 L2406.65 2347.93 Q2408.65 2344.66 2411.45 2343.1 Q2414.26 2341.54 2418.11 2341.54 Q2421.99 2341.54 2424.7 2343.51 Q2427.43 2345.48 2428.74 2349.24 Z" fill="#000000" fill-rule="nonzero" fill-opacity="1" /><path clip-path="url(#clip580)" d="M2463.56 2328.58 L2468.65 2328.58 Q2473.42 2336.09 2475.78 2343.29 Q2478.17 2350.48 2478.17 2357.58 Q2478.17 2364.71 2475.78 2371.93 Q2473.42 2379.16 2468.65 2386.64 L2463.56 2386.64 Q2467.79 2379.35 2469.86 2372.16 Q2471.96 2364.93 2471.96 2357.58 Q2471.96 2350.23 2469.86 2343.06 Q2467.79 2335.9 2463.56 2328.58 Z" fill="#000000" fill-rule="nonzero" fill-opacity="1" /><polyline clip-path="url(#clip580)" style="stroke:#000000; stroke-linecap:round; stroke-linejoin:round; stroke-width:4; stroke-opacity:1; fill:none" points="350.404,2215.18 350.404,123.472 "/>
<polyline clip-path="url(#clip580)" style="stroke:#000000; stroke-linecap:round; stroke-linejoin:round; stroke-width:4; stroke-opacity:1; fill:none" points="3552.76,2215.18 3552.76,123.472 "/>
<polyline clip-path="url(#clip580)" style="stroke:#000000; stroke-linecap:round; stroke-linejoin:round; stroke-width:4; stroke-opacity:1; fill:none" points="350.404,2215.18 369.302,2215.18 "/>
<polyline clip-path="url(#clip580)" style="stroke:#000000; stroke-linecap:round; stroke-linejoin:round; stroke-width:4; stroke-opacity:1; fill:none" points="350.404,1659.63 369.302,1659.63 "/>
<polyline clip-path="url(#clip580)" style="stroke:#000000; stroke-linecap:round; stroke-linejoin:round; stroke-width:4; stroke-opacity:1; fill:none" points="350.404,1104.09 369.302,1104.09 "/>
<polyline clip-path="url(#clip580)" style="stroke:#000000; stroke-linecap:round; stroke-linejoin:round; stroke-width:4; stroke-opacity:1; fill:none" points="350.404,548.54 369.302,548.54 "/>
<polyline clip-path="url(#clip580)" style="stroke:#000000; stroke-linecap:round; stroke-linejoin:round; stroke-width:4; stroke-opacity:1; fill:none" points="3552.76,2215.18 3533.86,2215.18 "/>
<polyline clip-path="url(#clip580)" style="stroke:#000000; stroke-linecap:round; stroke-linejoin:round; stroke-width:4; stroke-opacity:1; fill:none" points="3552.76,1659.63 3533.86,1659.63 "/>
<polyline clip-path="url(#clip580)" style="stroke:#000000; stroke-linecap:round; stroke-linejoin:round; stroke-width:4; stroke-opacity:1; fill:none" points="3552.76,1104.09 3533.86,1104.09 "/>
<polyline clip-path="url(#clip580)" style="stroke:#000000; stroke-linecap:round; stroke-linejoin:round; stroke-width:4; stroke-opacity:1; fill:none" points="3552.76,548.54 3533.86,548.54 "/>
<path clip-path="url(#clip580)" d="M284.46 2200.98 Q280.849 2200.98 279.02 2204.54 Q277.215 2208.08 277.215 2215.21 Q277.215 2222.32 279.02 2225.89 Q280.849 2229.43 284.46 2229.43 Q288.094 2229.43 289.9 2225.89 Q291.729 2222.32 291.729 2215.21 Q291.729 2208.08 289.9 2204.54 Q288.094 2200.98 284.46 2200.98 M284.46 2197.27 Q290.27 2197.27 293.326 2201.88 Q296.404 2206.46 296.404 2215.21 Q296.404 2223.94 293.326 2228.55 Q290.27 2233.13 284.46 2233.13 Q278.65 2233.13 275.571 2228.55 Q272.516 2223.94 272.516 2215.21 Q272.516 2206.46 275.571 2201.88 Q278.65 2197.27 284.46 2197.27 Z" fill="#000000" fill-rule="nonzero" fill-opacity="1" /><path clip-path="url(#clip580)" d="M115.043 1679.43 L131.362 1679.43 L131.362 1683.36 L109.418 1683.36 L109.418 1679.43 Q112.08 1676.67 116.663 1672.04 Q121.269 1667.39 122.45 1666.05 Q124.695 1663.52 125.575 1661.79 Q126.478 1660.03 126.478 1658.34 Q126.478 1655.58 124.533 1653.85 Q122.612 1652.11 119.51 1652.11 Q117.311 1652.11 114.857 1652.87 Q112.427 1653.64 109.649 1655.19 L109.649 1650.47 Q112.473 1649.33 114.927 1648.75 Q117.38 1648.18 119.418 1648.18 Q124.788 1648.18 127.982 1650.86 Q131.177 1653.55 131.177 1658.04 Q131.177 1660.17 130.367 1662.09 Q129.579 1663.99 127.473 1666.58 Q126.894 1667.25 123.792 1670.47 Q120.691 1673.66 115.043 1679.43 Z" fill="#000000" fill-rule="nonzero" fill-opacity="1" /><path clip-path="url(#clip580)" d="M141.177 1677.48 L146.061 1677.48 L146.061 1683.36 L141.177 1683.36 L141.177 1677.48 Z" fill="#000000" fill-rule="nonzero" fill-opacity="1" /><path clip-path="url(#clip580)" d="M166.246 1651.88 Q162.635 1651.88 160.806 1655.44 Q159.001 1658.99 159.001 1666.12 Q159.001 1673.22 160.806 1676.79 Q162.635 1680.33 166.246 1680.33 Q169.88 1680.33 171.686 1676.79 Q173.514 1673.22 173.514 1666.12 Q173.514 1658.99 171.686 1655.44 Q169.88 1651.88 166.246 1651.88 M166.246 1648.18 Q172.056 1648.18 175.112 1652.78 Q178.19 1657.37 178.19 1666.12 Q178.19 1674.84 175.112 1679.45 Q172.056 1684.03 166.246 1684.03 Q160.436 1684.03 157.357 1679.45 Q154.302 1674.84 154.302 1666.12 Q154.302 1657.37 157.357 1652.78 Q160.436 1648.18 166.246 1648.18 Z" fill="#000000" fill-rule="nonzero" fill-opacity="1" /><path clip-path="url(#clip580)" d="M214.579 1657.9 L204 1668.52 L214.579 1679.1 L211.824 1681.9 L201.199 1671.28 L190.575 1681.9 L187.843 1679.1 L198.399 1668.52 L187.843 1657.9 L190.575 1655.1 L201.199 1665.72 L211.824 1655.1 L214.579 1657.9 Z" fill="#000000" fill-rule="nonzero" fill-opacity="1" /><path clip-path="url(#clip580)" d="M226.94 1679.43 L234.579 1679.43 L234.579 1653.06 L226.269 1654.73 L226.269 1650.47 L234.533 1648.8 L239.209 1648.8 L239.209 1679.43 L246.847 1679.43 L246.847 1683.36 L226.94 1683.36 L226.94 1679.43 Z" fill="#000000" fill-rule="nonzero" fill-opacity="1" /><path clip-path="url(#clip580)" d="M266.292 1651.88 Q262.681 1651.88 260.852 1655.44 Q259.046 1658.99 259.046 1666.12 Q259.046 1673.22 260.852 1676.79 Q262.681 1680.33 266.292 1680.33 Q269.926 1680.33 271.732 1676.79 Q273.56 1673.22 273.56 1666.12 Q273.56 1658.99 271.732 1655.44 Q269.926 1651.88 266.292 1651.88 M266.292 1648.18 Q272.102 1648.18 275.157 1652.78 Q278.236 1657.37 278.236 1666.12 Q278.236 1674.84 275.157 1679.45 Q272.102 1684.03 266.292 1684.03 Q260.482 1684.03 257.403 1679.45 Q254.347 1674.84 254.347 1666.12 Q254.347 1657.37 257.403 1652.78 Q260.482 1648.18 266.292 1648.18 Z" fill="#000000" fill-rule="nonzero" fill-opacity="1" /><path clip-path="url(#clip580)" d="M279.421 1627.87 L294.336 1627.87 L294.336 1631.07 L282.9 1631.07 L282.9 1637.95 Q283.728 1637.67 284.556 1637.54 Q285.383 1637.39 286.211 1637.39 Q290.913 1637.39 293.658 1639.96 Q296.404 1642.54 296.404 1646.94 Q296.404 1651.47 293.583 1653.99 Q290.762 1656.5 285.628 1656.5 Q283.86 1656.5 282.016 1656.2 Q280.192 1655.89 278.236 1655.29 L278.236 1651.47 Q279.929 1652.4 281.734 1652.85 Q283.54 1653.3 285.552 1653.3 Q288.806 1653.3 290.706 1651.59 Q292.605 1649.88 292.605 1646.94 Q292.605 1644.01 290.706 1642.3 Q288.806 1640.58 285.552 1640.58 Q284.029 1640.58 282.505 1640.92 Q281.001 1641.26 279.421 1641.98 L279.421 1627.87 Z" fill="#000000" fill-rule="nonzero" fill-opacity="1" /><path clip-path="url(#clip580)" d="M123.862 1097.33 L112.056 1115.78 L123.862 1115.78 L123.862 1097.33 M122.635 1093.25 L128.515 1093.25 L128.515 1115.78 L133.445 1115.78 L133.445 1119.67 L128.515 1119.67 L128.515 1127.81 L123.862 1127.81 L123.862 1119.67 L108.26 1119.67 L108.26 1115.15 L122.635 1093.25 Z" fill="#000000" fill-rule="nonzero" fill-opacity="1" /><path clip-path="url(#clip580)" d="M141.177 1121.93 L146.061 1121.93 L146.061 1127.81 L141.177 1127.81 L141.177 1121.93 Z" fill="#000000" fill-rule="nonzero" fill-opacity="1" /><path clip-path="url(#clip580)" d="M166.246 1096.33 Q162.635 1096.33 160.806 1099.9 Q159.001 1103.44 159.001 1110.57 Q159.001 1117.68 160.806 1121.24 Q162.635 1124.78 166.246 1124.78 Q169.88 1124.78 171.686 1121.24 Q173.514 1117.68 173.514 1110.57 Q173.514 1103.44 171.686 1099.9 Q169.88 1096.33 166.246 1096.33 M166.246 1092.63 Q172.056 1092.63 175.112 1097.24 Q178.19 1101.82 178.19 1110.57 Q178.19 1119.3 175.112 1123.9 Q172.056 1128.49 166.246 1128.49 Q160.436 1128.49 157.357 1123.9 Q154.302 1119.3 154.302 1110.57 Q154.302 1101.82 157.357 1097.24 Q160.436 1092.63 166.246 1092.63 Z" fill="#000000" fill-rule="nonzero" fill-opacity="1" /><path clip-path="url(#clip580)" d="M214.579 1102.35 L204 1112.98 L214.579 1123.56 L211.824 1126.36 L201.199 1115.73 L190.575 1126.36 L187.843 1123.56 L198.399 1112.98 L187.843 1102.35 L190.575 1099.55 L201.199 1110.18 L211.824 1099.55 L214.579 1102.35 Z" fill="#000000" fill-rule="nonzero" fill-opacity="1" /><path clip-path="url(#clip580)" d="M226.94 1123.88 L234.579 1123.88 L234.579 1097.51 L226.269 1099.18 L226.269 1094.92 L234.533 1093.25 L239.209 1093.25 L239.209 1123.88 L246.847 1123.88 L246.847 1127.81 L226.94 1127.81 L226.94 1123.88 Z" fill="#000000" fill-rule="nonzero" fill-opacity="1" /><path clip-path="url(#clip580)" d="M266.292 1096.33 Q262.681 1096.33 260.852 1099.9 Q259.046 1103.44 259.046 1110.57 Q259.046 1117.68 260.852 1121.24 Q262.681 1124.78 266.292 1124.78 Q269.926 1124.78 271.732 1121.24 Q273.56 1117.68 273.56 1110.57 Q273.56 1103.44 271.732 1099.9 Q269.926 1096.33 266.292 1096.33 M266.292 1092.63 Q272.102 1092.63 275.157 1097.24 Q278.236 1101.82 278.236 1110.57 Q278.236 1119.3 275.157 1123.9 Q272.102 1128.49 266.292 1128.49 Q260.482 1128.49 257.403 1123.9 Q254.347 1119.3 254.347 1110.57 Q254.347 1101.82 257.403 1097.24 Q260.482 1092.63 266.292 1092.63 Z" fill="#000000" fill-rule="nonzero" fill-opacity="1" /><path clip-path="url(#clip580)" d="M279.421 1072.32 L294.336 1072.32 L294.336 1075.52 L282.9 1075.52 L282.9 1082.4 Q283.728 1082.12 284.556 1081.99 Q285.383 1081.84 286.211 1081.84 Q290.913 1081.84 293.658 1084.42 Q296.404 1086.99 296.404 1091.4 Q296.404 1095.93 293.583 1098.45 Q290.762 1100.95 285.628 1100.95 Q283.86 1100.95 282.016 1100.65 Q280.192 1100.35 278.236 1099.75 L278.236 1095.93 Q279.929 1096.85 281.734 1097.3 Q283.54 1097.75 285.552 1097.75 Q288.806 1097.75 290.706 1096.04 Q292.605 1094.33 292.605 1091.4 Q292.605 1088.46 290.706 1086.75 Q288.806 1085.04 285.552 1085.04 Q284.029 1085.04 282.505 1085.38 Q281.001 1085.72 279.421 1086.43 L279.421 1072.32 Z" fill="#000000" fill-rule="nonzero" fill-opacity="1" /><path clip-path="url(#clip580)" d="M121.593 553.124 Q118.445 553.124 116.593 555.277 Q114.765 557.43 114.765 561.18 Q114.765 564.907 116.593 567.083 Q118.445 569.235 121.593 569.235 Q124.742 569.235 126.57 567.083 Q128.422 564.907 128.422 561.18 Q128.422 557.43 126.57 555.277 Q124.742 553.124 121.593 553.124 M130.876 538.472 L130.876 542.731 Q129.117 541.898 127.311 541.458 Q125.529 541.018 123.769 541.018 Q119.14 541.018 116.686 544.143 Q114.255 547.268 113.908 553.587 Q115.274 551.573 117.334 550.509 Q119.394 549.421 121.871 549.421 Q127.08 549.421 130.089 552.592 Q133.121 555.74 133.121 561.18 Q133.121 566.504 129.973 569.722 Q126.825 572.939 121.593 572.939 Q115.598 572.939 112.427 568.356 Q109.256 563.749 109.256 555.023 Q109.256 546.828 113.144 541.967 Q117.033 537.083 123.584 537.083 Q125.343 537.083 127.126 537.43 Q128.931 537.777 130.876 538.472 Z" fill="#000000" fill-rule="nonzero" fill-opacity="1" /><path clip-path="url(#clip580)" d="M141.177 566.388 L146.061 566.388 L146.061 572.268 L141.177 572.268 L141.177 566.388 Z" fill="#000000" fill-rule="nonzero" fill-opacity="1" /><path clip-path="url(#clip580)" d="M166.246 540.787 Q162.635 540.787 160.806 544.351 Q159.001 547.893 159.001 555.023 Q159.001 562.129 160.806 565.694 Q162.635 569.235 166.246 569.235 Q169.88 569.235 171.686 565.694 Q173.514 562.129 173.514 555.023 Q173.514 547.893 171.686 544.351 Q169.88 540.787 166.246 540.787 M166.246 537.083 Q172.056 537.083 175.112 541.689 Q178.19 546.273 178.19 555.023 Q178.19 563.749 175.112 568.356 Q172.056 572.939 166.246 572.939 Q160.436 572.939 157.357 568.356 Q154.302 563.749 154.302 555.023 Q154.302 546.273 157.357 541.689 Q160.436 537.083 166.246 537.083 Z" fill="#000000" fill-rule="nonzero" fill-opacity="1" /><path clip-path="url(#clip580)" d="M214.579 546.805 L204 557.43 L214.579 568.009 L211.824 570.81 L201.199 560.185 L190.575 570.81 L187.843 568.009 L198.399 557.43 L187.843 546.805 L190.575 544.004 L201.199 554.629 L211.824 544.004 L214.579 546.805 Z" fill="#000000" fill-rule="nonzero" fill-opacity="1" /><path clip-path="url(#clip580)" d="M226.94 568.333 L234.579 568.333 L234.579 541.967 L226.269 543.634 L226.269 539.374 L234.533 537.708 L239.209 537.708 L239.209 568.333 L246.847 568.333 L246.847 572.268 L226.94 572.268 L226.94 568.333 Z" fill="#000000" fill-rule="nonzero" fill-opacity="1" /><path clip-path="url(#clip580)" d="M266.292 540.787 Q262.681 540.787 260.852 544.351 Q259.046 547.893 259.046 555.023 Q259.046 562.129 260.852 565.694 Q262.681 569.235 266.292 569.235 Q269.926 569.235 271.732 565.694 Q273.56 562.129 273.56 555.023 Q273.56 547.893 271.732 544.351 Q269.926 540.787 266.292 540.787 M266.292 537.083 Q272.102 537.083 275.157 541.689 Q278.236 546.273 278.236 555.023 Q278.236 563.749 275.157 568.356 Q272.102 572.939 266.292 572.939 Q260.482 572.939 257.403 568.356 Q254.347 563.749 254.347 555.023 Q254.347 546.273 257.403 541.689 Q260.482 537.083 266.292 537.083 Z" fill="#000000" fill-rule="nonzero" fill-opacity="1" /><path clip-path="url(#clip580)" d="M279.421 516.777 L294.336 516.777 L294.336 519.975 L282.9 519.975 L282.9 526.858 Q283.728 526.576 284.556 526.445 Q285.383 526.294 286.211 526.294 Q290.913 526.294 293.658 528.871 Q296.404 531.447 296.404 535.849 Q296.404 540.381 293.583 542.901 Q290.762 545.403 285.628 545.403 Q283.86 545.403 282.016 545.102 Q280.192 544.801 278.236 544.199 L278.236 540.381 Q279.929 541.303 281.734 541.754 Q283.54 542.206 285.552 542.206 Q288.806 542.206 290.706 540.494 Q292.605 538.783 292.605 535.849 Q292.605 532.914 290.706 531.203 Q288.806 529.491 285.552 529.491 Q284.029 529.491 282.505 529.83 Q281.001 530.169 279.421 530.883 L279.421 516.777 Z" fill="#000000" fill-rule="nonzero" fill-opacity="1" /><path clip-path="url(#clip580)" d="M-3.85556 1241.58 L2.92392 1241.58 Q-0.0997943 1244.82 -1.59574 1248.52 Q-3.09168 1252.18 -3.09168 1256.31 Q-3.09168 1264.46 1.9054 1268.79 Q6.87065 1273.12 16.2919 1273.12 Q25.6813 1273.12 30.6784 1268.79 Q35.6436 1264.46 35.6436 1256.31 Q35.6436 1252.18 34.1477 1248.52 Q32.6518 1244.82 29.6281 1241.58 L36.3439 1241.58 Q38.6355 1244.95 39.7814 1248.74 Q40.9272 1252.49 40.9272 1256.7 Q40.9272 1267.49 34.3387 1273.69 Q27.7183 1279.9 16.2919 1279.9 Q4.83363 1279.9 -1.75488 1273.69 Q-8.37521 1267.49 -8.37521 1256.7 Q-8.37521 1252.43 -7.22939 1248.67 Q-6.11539 1244.89 -3.85556 1241.58 Z" fill="#000000" fill-rule="nonzero" fill-opacity="1" /><path clip-path="url(#clip580)" d="M9.83071 1211.24 Q9.25779 1212.23 9.00317 1213.41 Q8.71671 1214.55 8.71671 1215.95 Q8.71671 1220.92 11.9632 1223.59 Q15.1779 1226.24 21.2253 1226.24 L40.0042 1226.24 L40.0042 1232.12 L4.3562 1232.12 L4.3562 1226.24 L9.89437 1226.24 Q6.64785 1224.39 5.08826 1221.43 Q3.49683 1218.47 3.49683 1214.24 Q3.49683 1213.63 3.59232 1212.9 Q3.65597 1212.17 3.81512 1211.28 L9.83071 1211.24 Z" fill="#000000" fill-rule="nonzero" fill-opacity="1" /><path clip-path="url(#clip580)" d="M4.3562 1205.1 L4.3562 1199.24 L40.0042 1199.24 L40.0042 1205.1 L4.3562 1205.1 M-9.52104 1205.1 L-9.52104 1199.24 L-2.10499 1199.24 L-2.10499 1205.1 L-9.52104 1205.1 Z" fill="#000000" fill-rule="nonzero" fill-opacity="1" /><path clip-path="url(#clip580)" d="M11.1993 1159.24 Q7.2526 1157.04 5.37471 1153.98 Q3.49683 1150.93 3.49683 1146.79 Q3.49683 1141.22 7.41174 1138.2 Q11.2948 1135.17 18.4881 1135.17 L40.0042 1135.17 L40.0042 1141.06 L18.679 1141.06 Q13.5546 1141.06 11.072 1142.88 Q8.5894 1144.69 8.5894 1148.41 Q8.5894 1152.97 11.6131 1155.61 Q14.6368 1158.25 19.8567 1158.25 L40.0042 1158.25 L40.0042 1164.14 L18.679 1164.14 Q13.5228 1164.14 11.072 1165.95 Q8.5894 1167.77 8.5894 1171.55 Q8.5894 1176.04 11.6449 1178.68 Q14.6686 1181.33 19.8567 1181.33 L40.0042 1181.33 L40.0042 1187.21 L4.3562 1187.21 L4.3562 1181.33 L9.89437 1181.33 Q6.61603 1179.32 5.05643 1176.52 Q3.49683 1173.72 3.49683 1169.87 Q3.49683 1165.98 5.4702 1163.28 Q7.44357 1160.54 11.1993 1159.24 Z" fill="#000000" fill-rule="nonzero" fill-opacity="1" /><path clip-path="url(#clip580)" d="M20.7161 1093 L23.5806 1093 L23.5806 1119.93 Q29.6281 1119.55 32.8109 1116.3 Q35.9619 1113.02 35.9619 1107.2 Q35.9619 1103.82 35.1344 1100.67 Q34.3069 1097.49 32.6518 1094.37 L38.1899 1094.37 Q39.5267 1097.52 40.227 1100.83 Q40.9272 1104.14 40.9272 1107.55 Q40.9272 1116.08 35.9619 1121.07 Q30.9967 1126.04 22.5303 1126.04 Q13.7774 1126.04 8.65305 1121.33 Q3.49683 1116.59 3.49683 1108.57 Q3.49683 1101.37 8.1438 1097.2 Q12.7589 1093 20.7161 1093 M18.9973 1098.86 Q14.1912 1098.92 11.3266 1101.56 Q8.46208 1104.17 8.46208 1108.5 Q8.46208 1113.4 11.2312 1116.36 Q14.0002 1119.29 19.0292 1119.74 L18.9973 1098.86 Z" fill="#000000" fill-rule="nonzero" fill-opacity="1" /><path clip-path="url(#clip580)" d="M5.40654 1060.66 L10.9447 1060.66 Q9.67157 1063.15 9.03499 1065.82 Q8.39842 1068.49 8.39842 1071.36 Q8.39842 1075.72 9.73522 1077.91 Q11.072 1080.08 13.7456 1080.08 Q15.7826 1080.08 16.9603 1078.52 Q18.1061 1076.96 19.1565 1072.25 L19.6021 1070.24 Q20.9389 1064.01 23.3897 1061.4 Q25.8086 1058.75 30.1691 1058.75 Q35.1344 1058.75 38.0308 1062.7 Q40.9272 1066.62 40.9272 1073.49 Q40.9272 1076.35 40.3543 1079.47 Q39.8132 1082.56 38.6992 1086 L32.6518 1086 Q34.3387 1082.75 35.198 1079.6 Q36.0256 1076.45 36.0256 1073.36 Q36.0256 1069.23 34.6251 1067 Q33.1929 1064.77 30.6147 1064.77 Q28.2276 1064.77 26.9545 1066.39 Q25.6813 1067.98 24.5037 1073.43 L24.0262 1075.46 Q22.8804 1080.91 20.5251 1083.33 Q18.138 1085.74 14.0002 1085.74 Q8.97134 1085.74 6.23408 1082.18 Q3.49683 1078.61 3.49683 1072.06 Q3.49683 1068.81 3.97426 1065.95 Q4.45169 1063.08 5.40654 1060.66 Z" fill="#000000" fill-rule="nonzero" fill-opacity="1" /><path clip-path="url(#clip580)" d="M1198.19 16.7545 L1198.19 25.383 Q1194.06 21.5346 1189.36 19.6307 Q1184.7 17.7268 1179.44 17.7268 Q1169.07 17.7268 1163.56 24.0867 Q1158.05 30.4061 1158.05 42.3968 Q1158.05 54.3469 1163.56 60.7069 Q1169.07 67.0263 1179.44 67.0263 Q1184.7 67.0263 1189.36 65.1223 Q1194.06 63.2184 1198.19 59.3701 L1198.19 67.9175 Q1193.9 70.8341 1189.08 72.2924 Q1184.3 73.7508 1178.95 73.7508 Q1165.22 73.7508 1157.32 65.3654 Q1149.42 56.9395 1149.42 42.3968 Q1149.42 27.8135 1157.32 19.4281 Q1165.22 11.0023 1178.95 11.0023 Q1184.38 11.0023 1189.16 12.4606 Q1193.98 13.8784 1198.19 16.7545 Z" fill="#000000" fill-rule="nonzero" fill-opacity="1" /><path clip-path="url(#clip580)" d="M1236.8 34.1734 Q1235.54 33.4443 1234.04 33.1202 Q1232.59 32.7556 1230.8 32.7556 Q1224.48 32.7556 1221.08 36.8875 Q1217.72 40.9789 1217.72 48.6757 L1217.72 72.576 L1210.22 72.576 L1210.22 27.2059 L1217.72 27.2059 L1217.72 34.2544 Q1220.07 30.1225 1223.84 28.1376 Q1227.6 26.1121 1232.99 26.1121 Q1233.76 26.1121 1234.69 26.2337 Q1235.62 26.3147 1236.76 26.5172 L1236.8 34.1734 Z" fill="#000000" fill-rule="nonzero" fill-opacity="1" /><path clip-path="url(#clip580)" d="M1244.62 27.2059 L1252.07 27.2059 L1252.07 72.576 L1244.62 72.576 L1244.62 27.2059 M1244.62 9.54393 L1252.07 9.54393 L1252.07 18.9825 L1244.62 18.9825 L1244.62 9.54393 Z" fill="#000000" fill-rule="nonzero" fill-opacity="1" /><path clip-path="url(#clip580)" d="M1302.99 35.9153 Q1305.79 30.8922 1309.67 28.5022 Q1313.56 26.1121 1318.83 26.1121 Q1325.92 26.1121 1329.77 31.0947 Q1333.61 36.0368 1333.61 45.1919 L1333.61 72.576 L1326.12 72.576 L1326.12 45.4349 Q1326.12 38.913 1323.81 35.7533 Q1321.5 32.5936 1316.76 32.5936 Q1310.97 32.5936 1307.61 36.4419 Q1304.25 40.2903 1304.25 46.9338 L1304.25 72.576 L1296.75 72.576 L1296.75 45.4349 Q1296.75 38.8725 1294.44 35.7533 Q1292.13 32.5936 1287.31 32.5936 Q1281.6 32.5936 1278.24 36.4824 Q1274.88 40.3308 1274.88 46.9338 L1274.88 72.576 L1267.38 72.576 L1267.38 27.2059 L1274.88 27.2059 L1274.88 34.2544 Q1277.43 30.082 1280.99 28.0971 Q1284.56 26.1121 1289.46 26.1121 Q1294.4 26.1121 1297.85 28.6237 Q1301.33 31.1352 1302.99 35.9153 Z" fill="#000000" fill-rule="nonzero" fill-opacity="1" /><path clip-path="url(#clip580)" d="M1387.29 48.0275 L1387.29 51.6733 L1353.02 51.6733 Q1353.5 59.3701 1357.64 63.421 Q1361.81 67.4314 1369.22 67.4314 Q1373.52 67.4314 1377.53 66.3781 Q1381.58 65.3249 1385.55 63.2184 L1385.55 70.267 Q1381.54 71.9684 1377.32 72.8596 Q1373.11 73.7508 1368.78 73.7508 Q1357.92 73.7508 1351.56 67.4314 Q1345.24 61.1119 1345.24 50.3365 Q1345.24 39.1965 1351.24 32.6746 Q1357.27 26.1121 1367.48 26.1121 Q1376.64 26.1121 1381.94 32.0264 Q1387.29 37.9003 1387.29 48.0275 M1379.84 45.84 Q1379.75 39.7232 1376.39 36.0774 Q1373.07 32.4315 1367.56 32.4315 Q1361.32 32.4315 1357.56 35.9558 Q1353.83 39.4801 1353.26 45.8805 L1379.84 45.84 Z" fill="#000000" fill-rule="nonzero" fill-opacity="1" /><path clip-path="url(#clip580)" d="M1483.54 44.7463 L1483.54 48.3921 L1467.62 64.3122 L1462.76 59.4511 L1472.2 50.0125 L1422.82 50.0125 L1422.82 43.1259 L1472.2 43.1259 L1462.76 33.6873 L1467.62 28.8262 L1483.54 44.7463 Z" fill="#000000" fill-rule="nonzero" fill-opacity="1" /><path clip-path="url(#clip580)" d="M1559.49 45.1919 L1559.49 72.576 L1552.04 72.576 L1552.04 45.4349 Q1552.04 38.994 1549.53 35.7938 Q1547.02 32.5936 1541.99 32.5936 Q1535.96 32.5936 1532.47 36.4419 Q1528.99 40.2903 1528.99 46.9338 L1528.99 72.576 L1521.5 72.576 L1521.5 27.2059 L1528.99 27.2059 L1528.99 34.2544 Q1531.66 30.163 1535.27 28.1376 Q1538.91 26.1121 1543.65 26.1121 Q1551.47 26.1121 1555.48 30.9732 Q1559.49 35.7938 1559.49 45.1919 Z" fill="#000000" fill-rule="nonzero" fill-opacity="1" /><path clip-path="url(#clip580)" d="M1613.17 48.0275 L1613.17 51.6733 L1578.9 51.6733 Q1579.38 59.3701 1583.51 63.421 Q1587.69 67.4314 1595.1 67.4314 Q1599.39 67.4314 1603.4 66.3781 Q1607.46 65.3249 1611.43 63.2184 L1611.43 70.267 Q1607.42 71.9684 1603.2 72.8596 Q1598.99 73.7508 1594.65 73.7508 Q1583.8 73.7508 1577.44 67.4314 Q1571.12 61.1119 1571.12 50.3365 Q1571.12 39.1965 1577.11 32.6746 Q1583.15 26.1121 1593.36 26.1121 Q1602.51 26.1121 1607.82 32.0264 Q1613.17 37.9003 1613.17 48.0275 M1605.71 45.84 Q1605.63 39.7232 1602.27 36.0774 Q1598.95 32.4315 1593.44 32.4315 Q1587.2 32.4315 1583.43 35.9558 Q1579.71 39.4801 1579.14 45.8805 L1605.71 45.84 Z" fill="#000000" fill-rule="nonzero" fill-opacity="1" /><path clip-path="url(#clip580)" d="M1646.02 49.7694 Q1636.99 49.7694 1633.5 51.8354 Q1630.02 53.9013 1630.02 58.8839 Q1630.02 62.8538 1632.61 65.2034 Q1635.25 67.5124 1639.74 67.5124 Q1645.94 67.5124 1649.67 63.1374 Q1653.43 58.7219 1653.43 51.4303 L1653.43 49.7694 L1646.02 49.7694 M1660.89 46.6907 L1660.89 72.576 L1653.43 72.576 L1653.43 65.6895 Q1650.88 69.8214 1647.07 71.8063 Q1643.27 73.7508 1637.76 73.7508 Q1630.79 73.7508 1626.66 69.8619 Q1622.57 65.9325 1622.57 59.3701 Q1622.57 51.7138 1627.67 47.825 Q1632.81 43.9361 1642.98 43.9361 L1653.43 43.9361 L1653.43 43.2069 Q1653.43 38.0623 1650.03 35.2672 Q1646.67 32.4315 1640.55 32.4315 Q1636.66 32.4315 1632.98 33.3632 Q1629.29 34.295 1625.89 36.1584 L1625.89 29.2718 Q1629.98 27.692 1633.83 26.9223 Q1637.68 26.1121 1641.32 26.1121 Q1651.17 26.1121 1656.03 31.2163 Q1660.89 36.3204 1660.89 46.6907 Z" fill="#000000" fill-rule="nonzero" fill-opacity="1" /><path clip-path="url(#clip580)" d="M1702.53 34.1734 Q1701.27 33.4443 1699.78 33.1202 Q1698.32 32.7556 1696.54 32.7556 Q1690.22 32.7556 1686.81 36.8875 Q1683.45 40.9789 1683.45 48.6757 L1683.45 72.576 L1675.96 72.576 L1675.96 27.2059 L1683.45 27.2059 L1683.45 34.2544 Q1685.8 30.1225 1689.57 28.1376 Q1693.34 26.1121 1698.72 26.1121 Q1699.49 26.1121 1700.42 26.2337 Q1701.36 26.3147 1702.49 26.5172 L1702.53 34.1734 Z" fill="#000000" fill-rule="nonzero" fill-opacity="1" /><path clip-path="url(#clip580)" d="M1747.33 48.0275 L1747.33 51.6733 L1713.06 51.6733 Q1713.55 59.3701 1717.68 63.421 Q1721.85 67.4314 1729.27 67.4314 Q1733.56 67.4314 1737.57 66.3781 Q1741.62 65.3249 1745.59 63.2184 L1745.59 70.267 Q1741.58 71.9684 1737.37 72.8596 Q1733.16 73.7508 1728.82 73.7508 Q1717.96 73.7508 1711.6 67.4314 Q1705.29 61.1119 1705.29 50.3365 Q1705.29 39.1965 1711.28 32.6746 Q1717.32 26.1121 1727.52 26.1121 Q1736.68 26.1121 1741.99 32.0264 Q1747.33 37.9003 1747.33 48.0275 M1739.88 45.84 Q1739.8 39.7232 1736.44 36.0774 Q1733.11 32.4315 1727.61 32.4315 Q1721.37 32.4315 1717.6 35.9558 Q1713.87 39.4801 1713.31 45.8805 L1739.88 45.84 Z" fill="#000000" fill-rule="nonzero" fill-opacity="1" /><path clip-path="url(#clip580)" d="M1788.49 28.5427 L1788.49 35.5912 Q1785.33 33.9709 1781.93 33.1607 Q1778.53 32.3505 1774.88 32.3505 Q1769.33 32.3505 1766.53 34.0519 Q1763.78 35.7533 1763.78 39.156 Q1763.78 41.7486 1765.77 43.2475 Q1767.75 44.7058 1773.75 46.0426 L1776.3 46.6097 Q1784.24 48.3111 1787.56 51.4303 Q1790.92 54.509 1790.92 60.0587 Q1790.92 66.3781 1785.9 70.0644 Q1780.92 73.7508 1772.17 73.7508 Q1768.52 73.7508 1764.55 73.0216 Q1760.62 72.3329 1756.25 70.9151 L1756.25 63.2184 Q1760.38 65.3654 1764.39 66.4591 Q1768.4 67.5124 1772.33 67.5124 Q1777.59 67.5124 1780.43 65.73 Q1783.27 63.9071 1783.27 60.6258 Q1783.27 57.5877 1781.2 55.9673 Q1779.17 54.3469 1772.25 52.8481 L1769.65 52.2405 Q1762.73 50.7821 1759.65 47.7845 Q1756.57 44.7463 1756.57 39.4801 Q1756.57 33.0797 1761.11 29.5959 Q1765.64 26.1121 1773.99 26.1121 Q1778.12 26.1121 1781.77 26.7198 Q1785.41 27.3274 1788.49 28.5427 Z" fill="#000000" fill-rule="nonzero" fill-opacity="1" /><path clip-path="url(#clip580)" d="M1810.16 14.324 L1810.16 27.2059 L1825.52 27.2059 L1825.52 32.9987 L1810.16 32.9987 L1810.16 57.6282 Q1810.16 63.1779 1811.66 64.7578 Q1813.2 66.3376 1817.86 66.3376 L1825.52 66.3376 L1825.52 72.576 L1817.86 72.576 Q1809.23 72.576 1805.95 69.3758 Q1802.67 66.1351 1802.67 57.6282 L1802.67 32.9987 L1797.2 32.9987 L1797.2 27.2059 L1802.67 27.2059 L1802.67 14.324 L1810.16 14.324 Z" fill="#000000" fill-rule="nonzero" fill-opacity="1" /><path clip-path="url(#clip580)" d="M1861.69 9.54393 L1869.14 9.54393 L1869.14 72.576 L1861.69 72.576 L1861.69 9.54393 Z" fill="#000000" fill-rule="nonzero" fill-opacity="1" /><path clip-path="url(#clip580)" d="M1884.74 27.2059 L1892.19 27.2059 L1892.19 72.576 L1884.74 72.576 L1884.74 27.2059 M1884.74 9.54393 L1892.19 9.54393 L1892.19 18.9825 L1884.74 18.9825 L1884.74 9.54393 Z" fill="#000000" fill-rule="nonzero" fill-opacity="1" /><path clip-path="url(#clip580)" d="M1937.65 49.3643 Q1937.65 41.2625 1934.28 36.8065 Q1930.96 32.3505 1924.93 32.3505 Q1918.93 32.3505 1915.57 36.8065 Q1912.25 41.2625 1912.25 49.3643 Q1912.25 57.4256 1915.57 61.8816 Q1918.93 66.3376 1924.93 66.3376 Q1930.96 66.3376 1934.28 61.8816 Q1937.65 57.4256 1937.65 49.3643 M1945.1 66.9452 Q1945.1 78.5308 1939.95 84.1616 Q1934.81 89.8329 1924.2 89.8329 Q1920.27 89.8329 1916.78 89.2252 Q1913.3 88.6581 1910.02 87.4428 L1910.02 80.1917 Q1913.3 81.9741 1916.5 82.8248 Q1919.7 83.6755 1923.02 83.6755 Q1930.35 83.6755 1934 79.8271 Q1937.65 76.0193 1937.65 68.282 L1937.65 64.5957 Q1935.34 68.6061 1931.73 70.5911 Q1928.13 72.576 1923.1 72.576 Q1914.76 72.576 1909.65 66.2161 Q1904.55 59.8562 1904.55 49.3643 Q1904.55 38.832 1909.65 32.472 Q1914.76 26.1121 1923.1 26.1121 Q1928.13 26.1121 1931.73 28.0971 Q1935.34 30.082 1937.65 34.0924 L1937.65 27.2059 L1945.1 27.2059 L1945.1 66.9452 Z" fill="#000000" fill-rule="nonzero" fill-opacity="1" /><path clip-path="url(#clip580)" d="M1998.17 45.1919 L1998.17 72.576 L1990.71 72.576 L1990.71 45.4349 Q1990.71 38.994 1988.2 35.7938 Q1985.69 32.5936 1980.67 32.5936 Q1974.63 32.5936 1971.15 36.4419 Q1967.66 40.2903 1967.66 46.9338 L1967.66 72.576 L1960.17 72.576 L1960.17 9.54393 L1967.66 9.54393 L1967.66 34.2544 Q1970.34 30.163 1973.94 28.1376 Q1977.59 26.1121 1982.33 26.1121 Q1990.14 26.1121 1994.16 30.9732 Q1998.17 35.7938 1998.17 45.1919 Z" fill="#000000" fill-rule="nonzero" fill-opacity="1" /><path clip-path="url(#clip580)" d="M2020.41 14.324 L2020.41 27.2059 L2035.76 27.2059 L2035.76 32.9987 L2020.41 32.9987 L2020.41 57.6282 Q2020.41 63.1779 2021.9 64.7578 Q2023.44 66.3376 2028.1 66.3376 L2035.76 66.3376 L2035.76 72.576 L2028.1 72.576 Q2019.47 72.576 2016.19 69.3758 Q2012.91 66.1351 2012.91 57.6282 L2012.91 32.9987 L2007.44 32.9987 L2007.44 27.2059 L2012.91 27.2059 L2012.91 14.324 L2020.41 14.324 Z" fill="#000000" fill-rule="nonzero" fill-opacity="1" /><path clip-path="url(#clip580)" d="M2101.79 34.0924 L2101.79 9.54393 L2109.24 9.54393 L2109.24 72.576 L2101.79 72.576 L2101.79 65.7705 Q2099.44 69.8214 2095.83 71.8063 Q2092.27 73.7508 2087.24 73.7508 Q2079.02 73.7508 2073.84 67.1883 Q2068.69 60.6258 2068.69 49.9314 Q2068.69 39.2371 2073.84 32.6746 Q2079.02 26.1121 2087.24 26.1121 Q2092.27 26.1121 2095.83 28.0971 Q2099.44 30.0415 2101.79 34.0924 M2076.39 49.9314 Q2076.39 58.1548 2079.75 62.8538 Q2083.15 67.5124 2089.07 67.5124 Q2094.98 67.5124 2098.38 62.8538 Q2101.79 58.1548 2101.79 49.9314 Q2101.79 41.7081 2098.38 37.0496 Q2094.98 32.3505 2089.07 32.3505 Q2083.15 32.3505 2079.75 37.0496 Q2076.39 41.7081 2076.39 49.9314 Z" fill="#000000" fill-rule="nonzero" fill-opacity="1" /><path clip-path="url(#clip580)" d="M2124.59 27.2059 L2132.05 27.2059 L2132.05 72.576 L2124.59 72.576 L2124.59 27.2059 M2124.59 9.54393 L2132.05 9.54393 L2132.05 18.9825 L2124.59 18.9825 L2124.59 9.54393 Z" fill="#000000" fill-rule="nonzero" fill-opacity="1" /><path clip-path="url(#clip580)" d="M2176.57 28.5427 L2176.57 35.5912 Q2173.41 33.9709 2170 33.1607 Q2166.6 32.3505 2162.96 32.3505 Q2157.41 32.3505 2154.61 34.0519 Q2151.86 35.7533 2151.86 39.156 Q2151.86 41.7486 2153.84 43.2475 Q2155.83 44.7058 2161.82 46.0426 L2164.37 46.6097 Q2172.31 48.3111 2175.64 51.4303 Q2179 54.509 2179 60.0587 Q2179 66.3781 2173.97 70.0644 Q2168.99 73.7508 2160.24 73.7508 Q2156.6 73.7508 2152.63 73.0216 Q2148.7 72.3329 2144.32 70.9151 L2144.32 63.2184 Q2148.45 65.3654 2152.46 66.4591 Q2156.47 67.5124 2160.4 67.5124 Q2165.67 67.5124 2168.51 65.73 Q2171.34 63.9071 2171.34 60.6258 Q2171.34 57.5877 2169.28 55.9673 Q2167.25 54.3469 2160.32 52.8481 L2157.73 52.2405 Q2150.8 50.7821 2147.72 47.7845 Q2144.65 44.7463 2144.65 39.4801 Q2144.65 33.0797 2149.18 29.5959 Q2153.72 26.1121 2162.07 26.1121 Q2166.2 26.1121 2169.84 26.7198 Q2173.49 27.3274 2176.57 28.5427 Z" fill="#000000" fill-rule="nonzero" fill-opacity="1" /><path clip-path="url(#clip580)" d="M2198.24 14.324 L2198.24 27.2059 L2213.59 27.2059 L2213.59 32.9987 L2198.24 32.9987 L2198.24 57.6282 Q2198.24 63.1779 2199.74 64.7578 Q2201.28 66.3376 2205.94 66.3376 L2213.59 66.3376 L2213.59 72.576 L2205.94 72.576 Q2197.31 72.576 2194.03 69.3758 Q2190.75 66.1351 2190.75 57.6282 L2190.75 32.9987 L2185.28 32.9987 L2185.28 27.2059 L2190.75 27.2059 L2190.75 14.324 L2198.24 14.324 Z" fill="#000000" fill-rule="nonzero" fill-opacity="1" /><path clip-path="url(#clip580)" d="M2244.01 49.7694 Q2234.98 49.7694 2231.5 51.8354 Q2228.01 53.9013 2228.01 58.8839 Q2228.01 62.8538 2230.61 65.2034 Q2233.24 67.5124 2237.74 67.5124 Q2243.93 67.5124 2247.66 63.1374 Q2251.43 58.7219 2251.43 51.4303 L2251.43 49.7694 L2244.01 49.7694 M2258.88 46.6907 L2258.88 72.576 L2251.43 72.576 L2251.43 65.6895 Q2248.88 69.8214 2245.07 71.8063 Q2241.26 73.7508 2235.75 73.7508 Q2228.78 73.7508 2224.65 69.8619 Q2220.56 65.9325 2220.56 59.3701 Q2220.56 51.7138 2225.66 47.825 Q2230.81 43.9361 2240.98 43.9361 L2251.43 43.9361 L2251.43 43.2069 Q2251.43 38.0623 2248.03 35.2672 Q2244.66 32.4315 2238.55 32.4315 Q2234.66 32.4315 2230.97 33.3632 Q2227.28 34.295 2223.88 36.1584 L2223.88 29.2718 Q2227.97 27.692 2231.82 26.9223 Q2235.67 26.1121 2239.32 26.1121 Q2249.16 26.1121 2254.02 31.2163 Q2258.88 36.3204 2258.88 46.6907 Z" fill="#000000" fill-rule="nonzero" fill-opacity="1" /><path clip-path="url(#clip580)" d="M2311.95 45.1919 L2311.95 72.576 L2304.49 72.576 L2304.49 45.4349 Q2304.49 38.994 2301.98 35.7938 Q2299.47 32.5936 2294.45 32.5936 Q2288.41 32.5936 2284.93 36.4419 Q2281.45 40.2903 2281.45 46.9338 L2281.45 72.576 L2273.95 72.576 L2273.95 27.2059 L2281.45 27.2059 L2281.45 34.2544 Q2284.12 30.163 2287.72 28.1376 Q2291.37 26.1121 2296.11 26.1121 Q2303.93 26.1121 2307.94 30.9732 Q2311.95 35.7938 2311.95 45.1919 Z" fill="#000000" fill-rule="nonzero" fill-opacity="1" /><path clip-path="url(#clip580)" d="M2359.47 28.9478 L2359.47 35.9153 Q2356.31 34.1734 2353.11 33.3227 Q2349.95 32.4315 2346.71 32.4315 Q2339.45 32.4315 2335.44 37.0496 Q2331.43 41.6271 2331.43 49.9314 Q2331.43 58.2358 2335.44 62.8538 Q2339.45 67.4314 2346.71 67.4314 Q2349.95 67.4314 2353.11 66.5807 Q2356.31 65.6895 2359.47 63.9476 L2359.47 70.8341 Q2356.35 72.2924 2352.98 73.0216 Q2349.66 73.7508 2345.9 73.7508 Q2335.65 73.7508 2329.61 67.3098 Q2323.57 60.8689 2323.57 49.9314 Q2323.57 38.832 2329.65 32.472 Q2335.77 26.1121 2346.38 26.1121 Q2349.82 26.1121 2353.11 26.8413 Q2356.39 27.5299 2359.47 28.9478 Z" fill="#000000" fill-rule="nonzero" fill-opacity="1" /><path clip-path="url(#clip580)" d="M2411.24 48.0275 L2411.24 51.6733 L2376.97 51.6733 Q2377.45 59.3701 2381.58 63.421 Q2385.76 67.4314 2393.17 67.4314 Q2397.46 67.4314 2401.47 66.3781 Q2405.52 65.3249 2409.49 63.2184 L2409.49 70.267 Q2405.48 71.9684 2401.27 72.8596 Q2397.06 73.7508 2392.72 73.7508 Q2381.87 73.7508 2375.51 67.4314 Q2369.19 61.1119 2369.19 50.3365 Q2369.19 39.1965 2375.18 32.6746 Q2381.22 26.1121 2391.43 26.1121 Q2400.58 26.1121 2405.89 32.0264 Q2411.24 37.9003 2411.24 48.0275 M2403.78 45.84 Q2403.7 39.7232 2400.34 36.0774 Q2397.02 32.4315 2391.51 32.4315 Q2385.27 32.4315 2381.5 35.9558 Q2377.78 39.4801 2377.21 45.8805 L2403.78 45.84 Z" fill="#000000" fill-rule="nonzero" fill-opacity="1" /><path clip-path="url(#clip580)" d="M2467.75 9.62495 Q2462.32 18.942 2459.69 28.0566 Q2457.05 37.1711 2457.05 46.5287 Q2457.05 55.8863 2459.69 65.0818 Q2462.36 74.2369 2467.75 83.5134 L2461.26 83.5134 Q2455.19 73.9938 2452.15 64.7983 Q2449.15 55.6027 2449.15 46.5287 Q2449.15 37.4952 2452.15 28.3401 Q2455.15 19.1851 2461.26 9.62495 L2467.75 9.62495 Z" fill="#000000" fill-rule="nonzero" fill-opacity="1" /><path clip-path="url(#clip580)" d="M2535.11 31.4188 L2496.22 42.6398 L2535.11 53.7393 L2535.11 60.9499 L2483.18 46.0426 L2483.18 39.156 L2535.11 24.2892 L2535.11 31.4188 M2483.18 65.6895 L2535.11 65.6895 L2535.11 72.576 L2483.18 72.576 L2483.18 65.6895 Z" fill="#000000" fill-rule="nonzero" fill-opacity="1" /><path clip-path="url(#clip580)" d="M2585.3 65.7705 L2585.3 89.8329 L2577.81 89.8329 L2577.81 27.2059 L2585.3 27.2059 L2585.3 34.0924 Q2587.65 30.0415 2591.22 28.0971 Q2594.82 26.1121 2599.81 26.1121 Q2608.07 26.1121 2613.21 32.6746 Q2618.4 39.2371 2618.4 49.9314 Q2618.4 60.6258 2613.21 67.1883 Q2608.07 73.7508 2599.81 73.7508 Q2594.82 73.7508 2591.22 71.8063 Q2587.65 69.8214 2585.3 65.7705 M2610.66 49.9314 Q2610.66 41.7081 2607.26 37.0496 Q2603.9 32.3505 2597.98 32.3505 Q2592.07 32.3505 2588.67 37.0496 Q2585.3 41.7081 2585.3 49.9314 Q2585.3 58.1548 2588.67 62.8538 Q2592.07 67.5124 2597.98 67.5124 Q2603.9 67.5124 2607.26 62.8538 Q2610.66 58.1548 2610.66 49.9314 Z" fill="#000000" fill-rule="nonzero" fill-opacity="1" /><path clip-path="url(#clip580)" d="M2632.05 71.3202 L2632.05 63.8666 Q2635.13 65.3249 2638.29 66.0946 Q2641.45 66.8642 2644.49 66.8642 Q2652.59 66.8642 2656.84 61.436 Q2661.14 55.9673 2661.74 44.8678 Q2659.39 48.3516 2655.79 50.215 Q2652.18 52.0784 2647.81 52.0784 Q2638.74 52.0784 2633.43 46.6097 Q2628.16 41.1005 2628.16 31.5808 Q2628.16 22.2638 2633.67 16.633 Q2639.18 11.0023 2648.34 11.0023 Q2658.83 11.0023 2664.34 19.0636 Q2669.89 27.0843 2669.89 42.3968 Q2669.89 56.6965 2663.08 65.2439 Q2656.32 73.7508 2644.85 73.7508 Q2641.77 73.7508 2638.61 73.1431 Q2635.45 72.5355 2632.05 71.3202 M2648.34 45.678 Q2653.84 45.678 2657.05 41.9107 Q2660.29 38.1433 2660.29 31.5808 Q2660.29 25.0589 2657.05 21.2916 Q2653.84 17.4837 2648.34 17.4837 Q2642.83 17.4837 2639.59 21.2916 Q2636.39 25.0589 2636.39 31.5808 Q2636.39 38.1433 2639.59 41.9107 Q2642.83 45.678 2648.34 45.678 Z" fill="#000000" fill-rule="nonzero" fill-opacity="1" /><path clip-path="url(#clip580)" d="M2684.83 71.3202 L2684.83 63.8666 Q2687.91 65.3249 2691.07 66.0946 Q2694.23 66.8642 2697.27 66.8642 Q2705.37 66.8642 2709.63 61.436 Q2713.92 55.9673 2714.53 44.8678 Q2712.18 48.3516 2708.57 50.215 Q2704.97 52.0784 2700.59 52.0784 Q2691.52 52.0784 2686.21 46.6097 Q2680.95 41.1005 2680.95 31.5808 Q2680.95 22.2638 2686.45 16.633 Q2691.96 11.0023 2701.12 11.0023 Q2711.61 11.0023 2717.12 19.0636 Q2722.67 27.0843 2722.67 42.3968 Q2722.67 56.6965 2715.86 65.2439 Q2709.1 73.7508 2697.64 73.7508 Q2694.56 73.7508 2691.4 73.1431 Q2688.24 72.5355 2684.83 71.3202 M2701.12 45.678 Q2706.63 45.678 2709.83 41.9107 Q2713.07 38.1433 2713.07 31.5808 Q2713.07 25.0589 2709.83 21.2916 Q2706.63 17.4837 2701.12 17.4837 Q2695.61 17.4837 2692.37 21.2916 Q2689.17 25.0589 2689.17 31.5808 Q2689.17 38.1433 2692.37 41.9107 Q2695.61 45.678 2701.12 45.678 Z" fill="#000000" fill-rule="nonzero" fill-opacity="1" /><path clip-path="url(#clip580)" d="M2735.15 9.62495 L2741.63 9.62495 Q2747.7 19.1851 2750.7 28.3401 Q2753.74 37.4952 2753.74 46.5287 Q2753.74 55.6027 2750.7 64.7983 Q2747.7 73.9938 2741.63 83.5134 L2735.15 83.5134 Q2740.53 74.2369 2743.17 65.0818 Q2745.84 55.8863 2745.84 46.5287 Q2745.84 37.1711 2743.17 28.0566 Q2740.53 18.942 2735.15 9.62495 Z" fill="#000000" fill-rule="nonzero" fill-opacity="1" /><path clip-path="url(#clip582)" d="M526.539 123.472 L526.539 2215.18 L684.877 2215.18 L684.877 123.472 L526.539 123.472 L526.539 123.472  Z" fill="#009af9" fill-rule="evenodd" fill-opacity="1"/>
<polyline clip-path="url(#clip582)" style="stroke:#000000; stroke-linecap:round; stroke-linejoin:round; stroke-width:4; stroke-opacity:1; fill:none" points="526.539,123.472 526.539,2215.18 684.877,2215.18 684.877,123.472 526.539,123.472 "/>
<path clip-path="url(#clip582)" d="M684.877 1934.43 L684.877 2215.18 L843.215 2215.18 L843.215 1934.43 L684.877 1934.43 L684.877 1934.43  Z" fill="#009af9" fill-rule="evenodd" fill-opacity="1"/>
<polyline clip-path="url(#clip582)" style="stroke:#000000; stroke-linecap:round; stroke-linejoin:round; stroke-width:4; stroke-opacity:1; fill:none" points="684.877,1934.43 684.877,2215.18 843.215,2215.18 843.215,1934.43 684.877,1934.43 "/>
<path clip-path="url(#clip582)" d="M843.215 2129.33 L843.215 2215.18 L1001.55 2215.18 L1001.55 2129.33 L843.215 2129.33 L843.215 2129.33  Z" fill="#009af9" fill-rule="evenodd" fill-opacity="1"/>
<polyline clip-path="url(#clip582)" style="stroke:#000000; stroke-linecap:round; stroke-linejoin:round; stroke-width:4; stroke-opacity:1; fill:none" points="843.215,2129.33 843.215,2215.18 1001.55,2215.18 1001.55,2129.33 843.215,2129.33 "/>
<path clip-path="url(#clip582)" d="M1001.55 2163.83 L1001.55 2215.18 L1159.89 2215.18 L1159.89 2163.83 L1001.55 2163.83 L1001.55 2163.83  Z" fill="#009af9" fill-rule="evenodd" fill-opacity="1"/>
<polyline clip-path="url(#clip582)" style="stroke:#000000; stroke-linecap:round; stroke-linejoin:round; stroke-width:4; stroke-opacity:1; fill:none" points="1001.55,2163.83 1001.55,2215.18 1159.89,2215.18 1159.89,2163.83 1001.55,2163.83 "/>
<path clip-path="url(#clip582)" d="M1159.89 2162.64 L1159.89 2215.18 L1318.23 2215.18 L1318.23 2162.64 L1159.89 2162.64 L1159.89 2162.64  Z" fill="#009af9" fill-rule="evenodd" fill-opacity="1"/>
<polyline clip-path="url(#clip582)" style="stroke:#000000; stroke-linecap:round; stroke-linejoin:round; stroke-width:4; stroke-opacity:1; fill:none" points="1159.89,2162.64 1159.89,2215.18 1318.23,2215.18 1318.23,2162.64 1159.89,2162.64 "/>
<path clip-path="url(#clip582)" d="M1318.23 2170.14 L1318.23 2215.18 L1476.57 2215.18 L1476.57 2170.14 L1318.23 2170.14 L1318.23 2170.14  Z" fill="#009af9" fill-rule="evenodd" fill-opacity="1"/>
<polyline clip-path="url(#clip582)" style="stroke:#000000; stroke-linecap:round; stroke-linejoin:round; stroke-width:4; stroke-opacity:1; fill:none" points="1318.23,2170.14 1318.23,2215.18 1476.57,2215.18 1476.57,2170.14 1318.23,2170.14 "/>
<path clip-path="url(#clip582)" d="M1476.57 2183.27 L1476.57 2215.18 L1634.9 2215.18 L1634.9 2183.27 L1476.57 2183.27 L1476.57 2183.27  Z" fill="#009af9" fill-rule="evenodd" fill-opacity="1"/>
<polyline clip-path="url(#clip582)" style="stroke:#000000; stroke-linecap:round; stroke-linejoin:round; stroke-width:4; stroke-opacity:1; fill:none" points="1476.57,2183.27 1476.57,2215.18 1634.9,2215.18 1634.9,2183.27 1476.57,2183.27 "/>
<path clip-path="url(#clip582)" d="M1634.9 2195.45 L1634.9 2215.18 L1793.24 2215.18 L1793.24 2195.45 L1634.9 2195.45 L1634.9 2195.45  Z" fill="#009af9" fill-rule="evenodd" fill-opacity="1"/>
<polyline clip-path="url(#clip582)" style="stroke:#000000; stroke-linecap:round; stroke-linejoin:round; stroke-width:4; stroke-opacity:1; fill:none" points="1634.9,2195.45 1634.9,2215.18 1793.24,2215.18 1793.24,2195.45 1634.9,2195.45 "/>
<path clip-path="url(#clip582)" d="M1793.24 2194.54 L1793.24 2215.18 L1951.58 2215.18 L1951.58 2194.54 L1793.24 2194.54 L1793.24 2194.54  Z" fill="#009af9" fill-rule="evenodd" fill-opacity="1"/>
<polyline clip-path="url(#clip582)" style="stroke:#000000; stroke-linecap:round; stroke-linejoin:round; stroke-width:4; stroke-opacity:1; fill:none" points="1793.24,2194.54 1793.24,2215.18 1951.58,2215.18 1951.58,2194.54 1793.24,2194.54 "/>
<path clip-path="url(#clip582)" d="M1951.58 2195.27 L1951.58 2215.18 L2109.92 2215.18 L2109.92 2195.27 L1951.58 2195.27 L1951.58 2195.27  Z" fill="#009af9" fill-rule="evenodd" fill-opacity="1"/>
<polyline clip-path="url(#clip582)" style="stroke:#000000; stroke-linecap:round; stroke-linejoin:round; stroke-width:4; stroke-opacity:1; fill:none" points="1951.58,2195.27 1951.58,2215.18 2109.92,2215.18 2109.92,2195.27 1951.58,2195.27 "/>
<path clip-path="url(#clip582)" d="M2109.92 2196.13 L2109.92 2215.18 L2268.26 2215.18 L2268.26 2196.13 L2109.92 2196.13 L2109.92 2196.13  Z" fill="#009af9" fill-rule="evenodd" fill-opacity="1"/>
<polyline clip-path="url(#clip582)" style="stroke:#000000; stroke-linecap:round; stroke-linejoin:round; stroke-width:4; stroke-opacity:1; fill:none" points="2109.92,2196.13 2109.92,2215.18 2268.26,2215.18 2268.26,2196.13 2109.92,2196.13 "/>
<path clip-path="url(#clip582)" d="M2268.26 2201.88 L2268.26 2215.18 L2426.59 2215.18 L2426.59 2201.88 L2268.26 2201.88 L2268.26 2201.88  Z" fill="#009af9" fill-rule="evenodd" fill-opacity="1"/>
<polyline clip-path="url(#clip582)" style="stroke:#000000; stroke-linecap:round; stroke-linejoin:round; stroke-width:4; stroke-opacity:1; fill:none" points="2268.26,2201.88 2268.26,2215.18 2426.59,2215.18 2426.59,2201.88 2268.26,2201.88 "/>
<path clip-path="url(#clip582)" d="M2426.59 2206.11 L2426.59 2215.18 L2584.93 2215.18 L2584.93 2206.11 L2426.59 2206.11 L2426.59 2206.11  Z" fill="#009af9" fill-rule="evenodd" fill-opacity="1"/>
<polyline clip-path="url(#clip582)" style="stroke:#000000; stroke-linecap:round; stroke-linejoin:round; stroke-width:4; stroke-opacity:1; fill:none" points="2426.59,2206.11 2426.59,2215.18 2584.93,2215.18 2584.93,2206.11 2426.59,2206.11 "/>
<path clip-path="url(#clip582)" d="M2584.93 2205.44 L2584.93 2215.18 L2743.27 2215.18 L2743.27 2205.44 L2584.93 2205.44 L2584.93 2205.44  Z" fill="#009af9" fill-rule="evenodd" fill-opacity="1"/>
<polyline clip-path="url(#clip582)" style="stroke:#000000; stroke-linecap:round; stroke-linejoin:round; stroke-width:4; stroke-opacity:1; fill:none" points="2584.93,2205.44 2584.93,2215.18 2743.27,2215.18 2743.27,2205.44 2584.93,2205.44 "/>
<path clip-path="url(#clip582)" d="M2743.27 2209.6 L2743.27 2215.18 L2901.61 2215.18 L2901.61 2209.6 L2743.27 2209.6 L2743.27 2209.6  Z" fill="#009af9" fill-rule="evenodd" fill-opacity="1"/>
<polyline clip-path="url(#clip582)" style="stroke:#000000; stroke-linecap:round; stroke-linejoin:round; stroke-width:4; stroke-opacity:1; fill:none" points="2743.27,2209.6 2743.27,2215.18 2901.61,2215.18 2901.61,2209.6 2743.27,2209.6 "/>
<path clip-path="url(#clip582)" d="M2901.61 2211.51 L2901.61 2215.18 L3059.95 2215.18 L3059.95 2211.51 L2901.61 2211.51 L2901.61 2211.51  Z" fill="#009af9" fill-rule="evenodd" fill-opacity="1"/>
<polyline clip-path="url(#clip582)" style="stroke:#000000; stroke-linecap:round; stroke-linejoin:round; stroke-width:4; stroke-opacity:1; fill:none" points="2901.61,2211.51 2901.61,2215.18 3059.95,2215.18 3059.95,2211.51 2901.61,2211.51 "/>
<path clip-path="url(#clip582)" d="M3059.95 2211.75 L3059.95 2215.18 L3218.28 2215.18 L3218.28 2211.75 L3059.95 2211.75 L3059.95 2211.75  Z" fill="#009af9" fill-rule="evenodd" fill-opacity="1"/>
<polyline clip-path="url(#clip582)" style="stroke:#000000; stroke-linecap:round; stroke-linejoin:round; stroke-width:4; stroke-opacity:1; fill:none" points="3059.95,2211.75 3059.95,2215.18 3218.28,2215.18 3218.28,2211.75 3059.95,2211.75 "/>
<path clip-path="url(#clip582)" d="M3218.28 2214.4 L3218.28 2215.18 L3376.62 2215.18 L3376.62 2214.4 L3218.28 2214.4 L3218.28 2214.4  Z" fill="#009af9" fill-rule="evenodd" fill-opacity="1"/>
<polyline clip-path="url(#clip582)" style="stroke:#000000; stroke-linecap:round; stroke-linejoin:round; stroke-width:4; stroke-opacity:1; fill:none" points="3218.28,2214.4 3218.28,2215.18 3376.62,2215.18 3376.62,2214.4 3218.28,2214.4 "/>
<circle clip-path="url(#clip582)" style="fill:#009af9; stroke:none; fill-opacity:0" cx="605.708" cy="123.472" r="2"/>
<circle clip-path="url(#clip582)" style="fill:#009af9; stroke:none; fill-opacity:0" cx="764.046" cy="1934.43" r="2"/>
<circle clip-path="url(#clip582)" style="fill:#009af9; stroke:none; fill-opacity:0" cx="922.384" cy="2129.33" r="2"/>
<circle clip-path="url(#clip582)" style="fill:#009af9; stroke:none; fill-opacity:0" cx="1080.72" cy="2163.83" r="2"/>
<circle clip-path="url(#clip582)" style="fill:#009af9; stroke:none; fill-opacity:0" cx="1239.06" cy="2162.64" r="2"/>
<circle clip-path="url(#clip582)" style="fill:#009af9; stroke:none; fill-opacity:0" cx="1397.4" cy="2170.14" r="2"/>
<circle clip-path="url(#clip582)" style="fill:#009af9; stroke:none; fill-opacity:0" cx="1555.74" cy="2183.27" r="2"/>
<circle clip-path="url(#clip582)" style="fill:#009af9; stroke:none; fill-opacity:0" cx="1714.07" cy="2195.45" r="2"/>
<circle clip-path="url(#clip582)" style="fill:#009af9; stroke:none; fill-opacity:0" cx="1872.41" cy="2194.54" r="2"/>
<circle clip-path="url(#clip582)" style="fill:#009af9; stroke:none; fill-opacity:0" cx="2030.75" cy="2195.27" r="2"/>
<circle clip-path="url(#clip582)" style="fill:#009af9; stroke:none; fill-opacity:0" cx="2189.09" cy="2196.13" r="2"/>
<circle clip-path="url(#clip582)" style="fill:#009af9; stroke:none; fill-opacity:0" cx="2347.42" cy="2201.88" r="2"/>
<circle clip-path="url(#clip582)" style="fill:#009af9; stroke:none; fill-opacity:0" cx="2505.76" cy="2206.11" r="2"/>
<circle clip-path="url(#clip582)" style="fill:#009af9; stroke:none; fill-opacity:0" cx="2664.1" cy="2205.44" r="2"/>
<circle clip-path="url(#clip582)" style="fill:#009af9; stroke:none; fill-opacity:0" cx="2822.44" cy="2209.6" r="2"/>
<circle clip-path="url(#clip582)" style="fill:#009af9; stroke:none; fill-opacity:0" cx="2980.78" cy="2211.51" r="2"/>
<circle clip-path="url(#clip582)" style="fill:#009af9; stroke:none; fill-opacity:0" cx="3139.11" cy="2211.75" r="2"/>
<circle clip-path="url(#clip582)" style="fill:#009af9; stroke:none; fill-opacity:0" cx="3297.45" cy="2214.4" r="2"/>
<polyline clip-path="url(#clip582)" style="stroke:#e26f46; stroke-linecap:round; stroke-linejoin:round; stroke-width:8; stroke-opacity:1; fill:none" points="1318.23,4306.89 1318.23,-1968.24 "/>
</svg>
